<?xml version="1.0" encoding="utf-8" standalone="no"?>
<!DOCTYPE svg PUBLIC "-//W3C//DTD SVG 1.1//EN"
  "http://www.w3.org/Graphics/SVG/1.1/DTD/svg11.dtd">
<!-- Created with matplotlib (https://matplotlib.org/) -->
<svg height="360pt" version="1.1" viewBox="0 0 491.13 360" width="491.13pt" xmlns="http://www.w3.org/2000/svg" xmlns:xlink="http://www.w3.org/1999/xlink">
 <defs>
  <style type="text/css">
*{stroke-linecap:butt;stroke-linejoin:round;}
  </style>
 </defs>
 <g id="figure_1">
  <g id="patch_1">
   <path d="M 0 360 
L 491.13 360 
L 491.13 0 
L 0 0 
z
" style="fill:#ffffff;"/>
  </g>
  <g id="axes_1">
   <g id="patch_2">
    <path d="M 52.209848 317.8375 
L 355.0887 317.8375 
L 355.0887 54 
L 52.209848 54 
z
" style="fill:#ffffff;"/>
   </g>
   <g id="matplotlib.axis_1">
    <g id="xtick_1">
     <g id="text_1">
      <!-- wrong_classif -->
      <defs>
       <path d="M 4.203125 54.6875 
L 13.1875 54.6875 
L 24.421875 12.015625 
L 35.59375 54.6875 
L 46.1875 54.6875 
L 57.421875 12.015625 
L 68.609375 54.6875 
L 77.59375 54.6875 
L 63.28125 0 
L 52.6875 0 
L 40.921875 44.828125 
L 29.109375 0 
L 18.5 0 
z
" id="DejaVuSans-119"/>
       <path d="M 41.109375 46.296875 
Q 39.59375 47.171875 37.8125 47.578125 
Q 36.03125 48 33.890625 48 
Q 26.265625 48 22.1875 43.046875 
Q 18.109375 38.09375 18.109375 28.8125 
L 18.109375 0 
L 9.078125 0 
L 9.078125 54.6875 
L 18.109375 54.6875 
L 18.109375 46.1875 
Q 20.953125 51.171875 25.484375 53.578125 
Q 30.03125 56 36.53125 56 
Q 37.453125 56 38.578125 55.875 
Q 39.703125 55.765625 41.0625 55.515625 
z
" id="DejaVuSans-114"/>
       <path d="M 30.609375 48.390625 
Q 23.390625 48.390625 19.1875 42.75 
Q 14.984375 37.109375 14.984375 27.296875 
Q 14.984375 17.484375 19.15625 11.84375 
Q 23.34375 6.203125 30.609375 6.203125 
Q 37.796875 6.203125 41.984375 11.859375 
Q 46.1875 17.53125 46.1875 27.296875 
Q 46.1875 37.015625 41.984375 42.703125 
Q 37.796875 48.390625 30.609375 48.390625 
z
M 30.609375 56 
Q 42.328125 56 49.015625 48.375 
Q 55.71875 40.765625 55.71875 27.296875 
Q 55.71875 13.875 49.015625 6.21875 
Q 42.328125 -1.421875 30.609375 -1.421875 
Q 18.84375 -1.421875 12.171875 6.21875 
Q 5.515625 13.875 5.515625 27.296875 
Q 5.515625 40.765625 12.171875 48.375 
Q 18.84375 56 30.609375 56 
z
" id="DejaVuSans-111"/>
       <path d="M 54.890625 33.015625 
L 54.890625 0 
L 45.90625 0 
L 45.90625 32.71875 
Q 45.90625 40.484375 42.875 44.328125 
Q 39.84375 48.1875 33.796875 48.1875 
Q 26.515625 48.1875 22.3125 43.546875 
Q 18.109375 38.921875 18.109375 30.90625 
L 18.109375 0 
L 9.078125 0 
L 9.078125 54.6875 
L 18.109375 54.6875 
L 18.109375 46.1875 
Q 21.34375 51.125 25.703125 53.5625 
Q 30.078125 56 35.796875 56 
Q 45.21875 56 50.046875 50.171875 
Q 54.890625 44.34375 54.890625 33.015625 
z
" id="DejaVuSans-110"/>
       <path d="M 45.40625 27.984375 
Q 45.40625 37.75 41.375 43.109375 
Q 37.359375 48.484375 30.078125 48.484375 
Q 22.859375 48.484375 18.828125 43.109375 
Q 14.796875 37.75 14.796875 27.984375 
Q 14.796875 18.265625 18.828125 12.890625 
Q 22.859375 7.515625 30.078125 7.515625 
Q 37.359375 7.515625 41.375 12.890625 
Q 45.40625 18.265625 45.40625 27.984375 
z
M 54.390625 6.78125 
Q 54.390625 -7.171875 48.1875 -13.984375 
Q 42 -20.796875 29.203125 -20.796875 
Q 24.46875 -20.796875 20.265625 -20.09375 
Q 16.0625 -19.390625 12.109375 -17.921875 
L 12.109375 -9.1875 
Q 16.0625 -11.328125 19.921875 -12.34375 
Q 23.78125 -13.375 27.78125 -13.375 
Q 36.625 -13.375 41.015625 -8.765625 
Q 45.40625 -4.15625 45.40625 5.171875 
L 45.40625 9.625 
Q 42.625 4.78125 38.28125 2.390625 
Q 33.9375 0 27.875 0 
Q 17.828125 0 11.671875 7.65625 
Q 5.515625 15.328125 5.515625 27.984375 
Q 5.515625 40.671875 11.671875 48.328125 
Q 17.828125 56 27.875 56 
Q 33.9375 56 38.28125 53.609375 
Q 42.625 51.21875 45.40625 46.390625 
L 45.40625 54.6875 
L 54.390625 54.6875 
z
" id="DejaVuSans-103"/>
       <path d="M 50.984375 -16.609375 
L 50.984375 -23.578125 
L -0.984375 -23.578125 
L -0.984375 -16.609375 
z
" id="DejaVuSans-95"/>
       <path d="M 48.78125 52.59375 
L 48.78125 44.1875 
Q 44.96875 46.296875 41.140625 47.34375 
Q 37.3125 48.390625 33.40625 48.390625 
Q 24.65625 48.390625 19.8125 42.84375 
Q 14.984375 37.3125 14.984375 27.296875 
Q 14.984375 17.28125 19.8125 11.734375 
Q 24.65625 6.203125 33.40625 6.203125 
Q 37.3125 6.203125 41.140625 7.25 
Q 44.96875 8.296875 48.78125 10.40625 
L 48.78125 2.09375 
Q 45.015625 0.34375 40.984375 -0.53125 
Q 36.96875 -1.421875 32.421875 -1.421875 
Q 20.0625 -1.421875 12.78125 6.34375 
Q 5.515625 14.109375 5.515625 27.296875 
Q 5.515625 40.671875 12.859375 48.328125 
Q 20.21875 56 33.015625 56 
Q 37.15625 56 41.109375 55.140625 
Q 45.0625 54.296875 48.78125 52.59375 
z
" id="DejaVuSans-99"/>
       <path d="M 9.421875 75.984375 
L 18.40625 75.984375 
L 18.40625 0 
L 9.421875 0 
z
" id="DejaVuSans-108"/>
       <path d="M 34.28125 27.484375 
Q 23.390625 27.484375 19.1875 25 
Q 14.984375 22.515625 14.984375 16.5 
Q 14.984375 11.71875 18.140625 8.90625 
Q 21.296875 6.109375 26.703125 6.109375 
Q 34.1875 6.109375 38.703125 11.40625 
Q 43.21875 16.703125 43.21875 25.484375 
L 43.21875 27.484375 
z
M 52.203125 31.203125 
L 52.203125 0 
L 43.21875 0 
L 43.21875 8.296875 
Q 40.140625 3.328125 35.546875 0.953125 
Q 30.953125 -1.421875 24.3125 -1.421875 
Q 15.921875 -1.421875 10.953125 3.296875 
Q 6 8.015625 6 15.921875 
Q 6 25.140625 12.171875 29.828125 
Q 18.359375 34.515625 30.609375 34.515625 
L 43.21875 34.515625 
L 43.21875 35.40625 
Q 43.21875 41.609375 39.140625 45 
Q 35.0625 48.390625 27.6875 48.390625 
Q 23 48.390625 18.546875 47.265625 
Q 14.109375 46.140625 10.015625 43.890625 
L 10.015625 52.203125 
Q 14.9375 54.109375 19.578125 55.046875 
Q 24.21875 56 28.609375 56 
Q 40.484375 56 46.34375 49.84375 
Q 52.203125 43.703125 52.203125 31.203125 
z
" id="DejaVuSans-97"/>
       <path d="M 44.28125 53.078125 
L 44.28125 44.578125 
Q 40.484375 46.53125 36.375 47.5 
Q 32.28125 48.484375 27.875 48.484375 
Q 21.1875 48.484375 17.84375 46.4375 
Q 14.5 44.390625 14.5 40.28125 
Q 14.5 37.15625 16.890625 35.375 
Q 19.28125 33.59375 26.515625 31.984375 
L 29.59375 31.296875 
Q 39.15625 29.25 43.1875 25.515625 
Q 47.21875 21.78125 47.21875 15.09375 
Q 47.21875 7.46875 41.1875 3.015625 
Q 35.15625 -1.421875 24.609375 -1.421875 
Q 20.21875 -1.421875 15.453125 -0.5625 
Q 10.6875 0.296875 5.421875 2 
L 5.421875 11.28125 
Q 10.40625 8.6875 15.234375 7.390625 
Q 20.0625 6.109375 24.8125 6.109375 
Q 31.15625 6.109375 34.5625 8.28125 
Q 37.984375 10.453125 37.984375 14.40625 
Q 37.984375 18.0625 35.515625 20.015625 
Q 33.0625 21.96875 24.703125 23.78125 
L 21.578125 24.515625 
Q 13.234375 26.265625 9.515625 29.90625 
Q 5.8125 33.546875 5.8125 39.890625 
Q 5.8125 47.609375 11.28125 51.796875 
Q 16.75 56 26.8125 56 
Q 31.78125 56 36.171875 55.265625 
Q 40.578125 54.546875 44.28125 53.078125 
z
" id="DejaVuSans-115"/>
       <path d="M 9.421875 54.6875 
L 18.40625 54.6875 
L 18.40625 0 
L 9.421875 0 
z
M 9.421875 75.984375 
L 18.40625 75.984375 
L 18.40625 64.59375 
L 9.421875 64.59375 
z
" id="DejaVuSans-105"/>
       <path d="M 37.109375 75.984375 
L 37.109375 68.5 
L 28.515625 68.5 
Q 23.6875 68.5 21.796875 66.546875 
Q 19.921875 64.59375 19.921875 59.515625 
L 19.921875 54.6875 
L 34.71875 54.6875 
L 34.71875 47.703125 
L 19.921875 47.703125 
L 19.921875 0 
L 10.890625 0 
L 10.890625 47.703125 
L 2.296875 47.703125 
L 2.296875 54.6875 
L 10.890625 54.6875 
L 10.890625 58.5 
Q 10.890625 67.625 15.140625 71.796875 
Q 19.390625 75.984375 28.609375 75.984375 
z
" id="DejaVuSans-102"/>
      </defs>
      <g style="fill:#262626;" transform="translate(94.323311 332.435938)scale(0.1 -0.1)">
       <use xlink:href="#DejaVuSans-119"/>
       <use x="81.787109" xlink:href="#DejaVuSans-114"/>
       <use x="122.869141" xlink:href="#DejaVuSans-111"/>
       <use x="184.050781" xlink:href="#DejaVuSans-110"/>
       <use x="247.429688" xlink:href="#DejaVuSans-103"/>
       <use x="310.90625" xlink:href="#DejaVuSans-95"/>
       <use x="360.90625" xlink:href="#DejaVuSans-99"/>
       <use x="415.886719" xlink:href="#DejaVuSans-108"/>
       <use x="443.669922" xlink:href="#DejaVuSans-97"/>
       <use x="504.949219" xlink:href="#DejaVuSans-115"/>
       <use x="557.048828" xlink:href="#DejaVuSans-115"/>
       <use x="609.148438" xlink:href="#DejaVuSans-105"/>
       <use x="636.931641" xlink:href="#DejaVuSans-102"/>
      </g>
     </g>
    </g>
    <g id="xtick_2">
     <g id="text_2">
      <!-- without_classif -->
      <defs>
       <path d="M 18.3125 70.21875 
L 18.3125 54.6875 
L 36.8125 54.6875 
L 36.8125 47.703125 
L 18.3125 47.703125 
L 18.3125 18.015625 
Q 18.3125 11.328125 20.140625 9.421875 
Q 21.96875 7.515625 27.59375 7.515625 
L 36.8125 7.515625 
L 36.8125 0 
L 27.59375 0 
Q 17.1875 0 13.234375 3.875 
Q 9.28125 7.765625 9.28125 18.015625 
L 9.28125 47.703125 
L 2.6875 47.703125 
L 2.6875 54.6875 
L 9.28125 54.6875 
L 9.28125 70.21875 
z
" id="DejaVuSans-116"/>
       <path d="M 54.890625 33.015625 
L 54.890625 0 
L 45.90625 0 
L 45.90625 32.71875 
Q 45.90625 40.484375 42.875 44.328125 
Q 39.84375 48.1875 33.796875 48.1875 
Q 26.515625 48.1875 22.3125 43.546875 
Q 18.109375 38.921875 18.109375 30.90625 
L 18.109375 0 
L 9.078125 0 
L 9.078125 75.984375 
L 18.109375 75.984375 
L 18.109375 46.1875 
Q 21.34375 51.125 25.703125 53.5625 
Q 30.078125 56 35.796875 56 
Q 45.21875 56 50.046875 50.171875 
Q 54.890625 44.34375 54.890625 33.015625 
z
" id="DejaVuSans-104"/>
       <path d="M 8.5 21.578125 
L 8.5 54.6875 
L 17.484375 54.6875 
L 17.484375 21.921875 
Q 17.484375 14.15625 20.5 10.265625 
Q 23.53125 6.390625 29.59375 6.390625 
Q 36.859375 6.390625 41.078125 11.03125 
Q 45.3125 15.671875 45.3125 23.6875 
L 45.3125 54.6875 
L 54.296875 54.6875 
L 54.296875 0 
L 45.3125 0 
L 45.3125 8.40625 
Q 42.046875 3.421875 37.71875 1 
Q 33.40625 -1.421875 27.6875 -1.421875 
Q 18.265625 -1.421875 13.375 4.4375 
Q 8.5 10.296875 8.5 21.578125 
z
M 31.109375 56 
z
" id="DejaVuSans-117"/>
      </defs>
      <g style="fill:#262626;" transform="translate(242.512737 332.435938)scale(0.1 -0.1)">
       <use xlink:href="#DejaVuSans-119"/>
       <use x="81.787109" xlink:href="#DejaVuSans-105"/>
       <use x="109.570312" xlink:href="#DejaVuSans-116"/>
       <use x="148.779297" xlink:href="#DejaVuSans-104"/>
       <use x="212.158203" xlink:href="#DejaVuSans-111"/>
       <use x="273.339844" xlink:href="#DejaVuSans-117"/>
       <use x="336.71875" xlink:href="#DejaVuSans-116"/>
       <use x="375.927734" xlink:href="#DejaVuSans-95"/>
       <use x="425.927734" xlink:href="#DejaVuSans-99"/>
       <use x="480.908203" xlink:href="#DejaVuSans-108"/>
       <use x="508.691406" xlink:href="#DejaVuSans-97"/>
       <use x="569.970703" xlink:href="#DejaVuSans-115"/>
       <use x="622.070312" xlink:href="#DejaVuSans-115"/>
       <use x="674.169922" xlink:href="#DejaVuSans-105"/>
       <use x="701.953125" xlink:href="#DejaVuSans-102"/>
      </g>
     </g>
    </g>
    <g id="text_3">
     <!-- prediction_status -->
     <defs>
      <path d="M 18.109375 8.203125 
L 18.109375 -20.796875 
L 9.078125 -20.796875 
L 9.078125 54.6875 
L 18.109375 54.6875 
L 18.109375 46.390625 
Q 20.953125 51.265625 25.265625 53.625 
Q 29.59375 56 35.59375 56 
Q 45.5625 56 51.78125 48.09375 
Q 58.015625 40.1875 58.015625 27.296875 
Q 58.015625 14.40625 51.78125 6.484375 
Q 45.5625 -1.421875 35.59375 -1.421875 
Q 29.59375 -1.421875 25.265625 0.953125 
Q 20.953125 3.328125 18.109375 8.203125 
z
M 48.6875 27.296875 
Q 48.6875 37.203125 44.609375 42.84375 
Q 40.53125 48.484375 33.40625 48.484375 
Q 26.265625 48.484375 22.1875 42.84375 
Q 18.109375 37.203125 18.109375 27.296875 
Q 18.109375 17.390625 22.1875 11.75 
Q 26.265625 6.109375 33.40625 6.109375 
Q 40.53125 6.109375 44.609375 11.75 
Q 48.6875 17.390625 48.6875 27.296875 
z
" id="DejaVuSans-112"/>
      <path d="M 56.203125 29.59375 
L 56.203125 25.203125 
L 14.890625 25.203125 
Q 15.484375 15.921875 20.484375 11.0625 
Q 25.484375 6.203125 34.421875 6.203125 
Q 39.59375 6.203125 44.453125 7.46875 
Q 49.3125 8.734375 54.109375 11.28125 
L 54.109375 2.78125 
Q 49.265625 0.734375 44.1875 -0.34375 
Q 39.109375 -1.421875 33.890625 -1.421875 
Q 20.796875 -1.421875 13.15625 6.1875 
Q 5.515625 13.8125 5.515625 26.8125 
Q 5.515625 40.234375 12.765625 48.109375 
Q 20.015625 56 32.328125 56 
Q 43.359375 56 49.78125 48.890625 
Q 56.203125 41.796875 56.203125 29.59375 
z
M 47.21875 32.234375 
Q 47.125 39.59375 43.09375 43.984375 
Q 39.0625 48.390625 32.421875 48.390625 
Q 24.90625 48.390625 20.390625 44.140625 
Q 15.875 39.890625 15.1875 32.171875 
z
" id="DejaVuSans-101"/>
      <path d="M 45.40625 46.390625 
L 45.40625 75.984375 
L 54.390625 75.984375 
L 54.390625 0 
L 45.40625 0 
L 45.40625 8.203125 
Q 42.578125 3.328125 38.25 0.953125 
Q 33.9375 -1.421875 27.875 -1.421875 
Q 17.96875 -1.421875 11.734375 6.484375 
Q 5.515625 14.40625 5.515625 27.296875 
Q 5.515625 40.1875 11.734375 48.09375 
Q 17.96875 56 27.875 56 
Q 33.9375 56 38.25 53.625 
Q 42.578125 51.265625 45.40625 46.390625 
z
M 14.796875 27.296875 
Q 14.796875 17.390625 18.875 11.75 
Q 22.953125 6.109375 30.078125 6.109375 
Q 37.203125 6.109375 41.296875 11.75 
Q 45.40625 17.390625 45.40625 27.296875 
Q 45.40625 37.203125 41.296875 42.84375 
Q 37.203125 48.484375 30.078125 48.484375 
Q 22.953125 48.484375 18.875 42.84375 
Q 14.796875 37.203125 14.796875 27.296875 
z
" id="DejaVuSans-100"/>
     </defs>
     <g style="fill:#262626;" transform="translate(160.592243 346.392188)scale(0.1 -0.1)">
      <use xlink:href="#DejaVuSans-112"/>
      <use x="63.476562" xlink:href="#DejaVuSans-114"/>
      <use x="104.558594" xlink:href="#DejaVuSans-101"/>
      <use x="166.082031" xlink:href="#DejaVuSans-100"/>
      <use x="229.558594" xlink:href="#DejaVuSans-105"/>
      <use x="257.341797" xlink:href="#DejaVuSans-99"/>
      <use x="312.322266" xlink:href="#DejaVuSans-116"/>
      <use x="351.53125" xlink:href="#DejaVuSans-105"/>
      <use x="379.314453" xlink:href="#DejaVuSans-111"/>
      <use x="440.496094" xlink:href="#DejaVuSans-110"/>
      <use x="503.875" xlink:href="#DejaVuSans-95"/>
      <use x="553.875" xlink:href="#DejaVuSans-115"/>
      <use x="605.974609" xlink:href="#DejaVuSans-116"/>
      <use x="645.183594" xlink:href="#DejaVuSans-97"/>
      <use x="706.462891" xlink:href="#DejaVuSans-116"/>
      <use x="745.671875" xlink:href="#DejaVuSans-117"/>
      <use x="809.050781" xlink:href="#DejaVuSans-115"/>
     </g>
    </g>
   </g>
   <g id="matplotlib.axis_2">
    <g id="ytick_1">
     <g id="line2d_1">
      <path clip-path="url(#pefd11f92e2)" d="M 52.209848 305.844886 
L 355.0887 305.844886 
" style="fill:none;stroke:#cccccc;stroke-linecap:round;stroke-width:0.8;"/>
     </g>
     <g id="text_4">
      <!-- 0 -->
      <defs>
       <path d="M 31.78125 66.40625 
Q 24.171875 66.40625 20.328125 58.90625 
Q 16.5 51.421875 16.5 36.375 
Q 16.5 21.390625 20.328125 13.890625 
Q 24.171875 6.390625 31.78125 6.390625 
Q 39.453125 6.390625 43.28125 13.890625 
Q 47.125 21.390625 47.125 36.375 
Q 47.125 51.421875 43.28125 58.90625 
Q 39.453125 66.40625 31.78125 66.40625 
z
M 31.78125 74.21875 
Q 44.046875 74.21875 50.515625 64.515625 
Q 56.984375 54.828125 56.984375 36.375 
Q 56.984375 17.96875 50.515625 8.265625 
Q 44.046875 -1.421875 31.78125 -1.421875 
Q 19.53125 -1.421875 13.0625 8.265625 
Q 6.59375 17.96875 6.59375 36.375 
Q 6.59375 54.828125 13.0625 64.515625 
Q 19.53125 74.21875 31.78125 74.21875 
z
" id="DejaVuSans-48"/>
      </defs>
      <g style="fill:#262626;" transform="translate(38.847348 309.644105)scale(0.1 -0.1)">
       <use xlink:href="#DejaVuSans-48"/>
      </g>
     </g>
    </g>
    <g id="ytick_2">
     <g id="line2d_2">
      <path clip-path="url(#pefd11f92e2)" d="M 52.209848 266.783231 
L 355.0887 266.783231 
" style="fill:none;stroke:#cccccc;stroke-linecap:round;stroke-width:0.8;"/>
     </g>
     <g id="text_5">
      <!-- 1 -->
      <defs>
       <path d="M 12.40625 8.296875 
L 28.515625 8.296875 
L 28.515625 63.921875 
L 10.984375 60.40625 
L 10.984375 69.390625 
L 28.421875 72.90625 
L 38.28125 72.90625 
L 38.28125 8.296875 
L 54.390625 8.296875 
L 54.390625 0 
L 12.40625 0 
z
" id="DejaVuSans-49"/>
      </defs>
      <g style="fill:#262626;" transform="translate(38.847348 270.582449)scale(0.1 -0.1)">
       <use xlink:href="#DejaVuSans-49"/>
      </g>
     </g>
    </g>
    <g id="ytick_3">
     <g id="line2d_3">
      <path clip-path="url(#pefd11f92e2)" d="M 52.209848 227.721575 
L 355.0887 227.721575 
" style="fill:none;stroke:#cccccc;stroke-linecap:round;stroke-width:0.8;"/>
     </g>
     <g id="text_6">
      <!-- 2 -->
      <defs>
       <path d="M 19.1875 8.296875 
L 53.609375 8.296875 
L 53.609375 0 
L 7.328125 0 
L 7.328125 8.296875 
Q 12.9375 14.109375 22.625 23.890625 
Q 32.328125 33.6875 34.8125 36.53125 
Q 39.546875 41.84375 41.421875 45.53125 
Q 43.3125 49.21875 43.3125 52.78125 
Q 43.3125 58.59375 39.234375 62.25 
Q 35.15625 65.921875 28.609375 65.921875 
Q 23.96875 65.921875 18.8125 64.3125 
Q 13.671875 62.703125 7.8125 59.421875 
L 7.8125 69.390625 
Q 13.765625 71.78125 18.9375 73 
Q 24.125 74.21875 28.421875 74.21875 
Q 39.75 74.21875 46.484375 68.546875 
Q 53.21875 62.890625 53.21875 53.421875 
Q 53.21875 48.921875 51.53125 44.890625 
Q 49.859375 40.875 45.40625 35.40625 
Q 44.1875 33.984375 37.640625 27.21875 
Q 31.109375 20.453125 19.1875 8.296875 
z
" id="DejaVuSans-50"/>
      </defs>
      <g style="fill:#262626;" transform="translate(38.847348 231.520793)scale(0.1 -0.1)">
       <use xlink:href="#DejaVuSans-50"/>
      </g>
     </g>
    </g>
    <g id="ytick_4">
     <g id="line2d_4">
      <path clip-path="url(#pefd11f92e2)" d="M 52.209848 188.659919 
L 355.0887 188.659919 
" style="fill:none;stroke:#cccccc;stroke-linecap:round;stroke-width:0.8;"/>
     </g>
     <g id="text_7">
      <!-- 3 -->
      <defs>
       <path d="M 40.578125 39.3125 
Q 47.65625 37.796875 51.625 33 
Q 55.609375 28.21875 55.609375 21.1875 
Q 55.609375 10.40625 48.1875 4.484375 
Q 40.765625 -1.421875 27.09375 -1.421875 
Q 22.515625 -1.421875 17.65625 -0.515625 
Q 12.796875 0.390625 7.625 2.203125 
L 7.625 11.71875 
Q 11.71875 9.328125 16.59375 8.109375 
Q 21.484375 6.890625 26.8125 6.890625 
Q 36.078125 6.890625 40.9375 10.546875 
Q 45.796875 14.203125 45.796875 21.1875 
Q 45.796875 27.640625 41.28125 31.265625 
Q 36.765625 34.90625 28.71875 34.90625 
L 20.21875 34.90625 
L 20.21875 43.015625 
L 29.109375 43.015625 
Q 36.375 43.015625 40.234375 45.921875 
Q 44.09375 48.828125 44.09375 54.296875 
Q 44.09375 59.90625 40.109375 62.90625 
Q 36.140625 65.921875 28.71875 65.921875 
Q 24.65625 65.921875 20.015625 65.03125 
Q 15.375 64.15625 9.8125 62.3125 
L 9.8125 71.09375 
Q 15.4375 72.65625 20.34375 73.4375 
Q 25.25 74.21875 29.59375 74.21875 
Q 40.828125 74.21875 47.359375 69.109375 
Q 53.90625 64.015625 53.90625 55.328125 
Q 53.90625 49.265625 50.4375 45.09375 
Q 46.96875 40.921875 40.578125 39.3125 
z
" id="DejaVuSans-51"/>
      </defs>
      <g style="fill:#262626;" transform="translate(38.847348 192.459138)scale(0.1 -0.1)">
       <use xlink:href="#DejaVuSans-51"/>
      </g>
     </g>
    </g>
    <g id="ytick_5">
     <g id="line2d_5">
      <path clip-path="url(#pefd11f92e2)" d="M 52.209848 149.598263 
L 355.0887 149.598263 
" style="fill:none;stroke:#cccccc;stroke-linecap:round;stroke-width:0.8;"/>
     </g>
     <g id="text_8">
      <!-- 4 -->
      <defs>
       <path d="M 37.796875 64.3125 
L 12.890625 25.390625 
L 37.796875 25.390625 
z
M 35.203125 72.90625 
L 47.609375 72.90625 
L 47.609375 25.390625 
L 58.015625 25.390625 
L 58.015625 17.1875 
L 47.609375 17.1875 
L 47.609375 0 
L 37.796875 0 
L 37.796875 17.1875 
L 4.890625 17.1875 
L 4.890625 26.703125 
z
" id="DejaVuSans-52"/>
      </defs>
      <g style="fill:#262626;" transform="translate(38.847348 153.397482)scale(0.1 -0.1)">
       <use xlink:href="#DejaVuSans-52"/>
      </g>
     </g>
    </g>
    <g id="ytick_6">
     <g id="line2d_6">
      <path clip-path="url(#pefd11f92e2)" d="M 52.209848 110.536607 
L 355.0887 110.536607 
" style="fill:none;stroke:#cccccc;stroke-linecap:round;stroke-width:0.8;"/>
     </g>
     <g id="text_9">
      <!-- 5 -->
      <defs>
       <path d="M 10.796875 72.90625 
L 49.515625 72.90625 
L 49.515625 64.59375 
L 19.828125 64.59375 
L 19.828125 46.734375 
Q 21.96875 47.46875 24.109375 47.828125 
Q 26.265625 48.1875 28.421875 48.1875 
Q 40.625 48.1875 47.75 41.5 
Q 54.890625 34.8125 54.890625 23.390625 
Q 54.890625 11.625 47.5625 5.09375 
Q 40.234375 -1.421875 26.90625 -1.421875 
Q 22.3125 -1.421875 17.546875 -0.640625 
Q 12.796875 0.140625 7.71875 1.703125 
L 7.71875 11.625 
Q 12.109375 9.234375 16.796875 8.0625 
Q 21.484375 6.890625 26.703125 6.890625 
Q 35.15625 6.890625 40.078125 11.328125 
Q 45.015625 15.765625 45.015625 23.390625 
Q 45.015625 31 40.078125 35.4375 
Q 35.15625 39.890625 26.703125 39.890625 
Q 22.75 39.890625 18.8125 39.015625 
Q 14.890625 38.140625 10.796875 36.28125 
z
" id="DejaVuSans-53"/>
      </defs>
      <g style="fill:#262626;" transform="translate(38.847348 114.335826)scale(0.1 -0.1)">
       <use xlink:href="#DejaVuSans-53"/>
      </g>
     </g>
    </g>
    <g id="ytick_7">
     <g id="line2d_7">
      <path clip-path="url(#pefd11f92e2)" d="M 52.209848 71.474951 
L 355.0887 71.474951 
" style="fill:none;stroke:#cccccc;stroke-linecap:round;stroke-width:0.8;"/>
     </g>
     <g id="text_10">
      <!-- 6 -->
      <defs>
       <path d="M 33.015625 40.375 
Q 26.375 40.375 22.484375 35.828125 
Q 18.609375 31.296875 18.609375 23.390625 
Q 18.609375 15.53125 22.484375 10.953125 
Q 26.375 6.390625 33.015625 6.390625 
Q 39.65625 6.390625 43.53125 10.953125 
Q 47.40625 15.53125 47.40625 23.390625 
Q 47.40625 31.296875 43.53125 35.828125 
Q 39.65625 40.375 33.015625 40.375 
z
M 52.59375 71.296875 
L 52.59375 62.3125 
Q 48.875 64.0625 45.09375 64.984375 
Q 41.3125 65.921875 37.59375 65.921875 
Q 27.828125 65.921875 22.671875 59.328125 
Q 17.53125 52.734375 16.796875 39.40625 
Q 19.671875 43.65625 24.015625 45.921875 
Q 28.375 48.1875 33.59375 48.1875 
Q 44.578125 48.1875 50.953125 41.515625 
Q 57.328125 34.859375 57.328125 23.390625 
Q 57.328125 12.15625 50.6875 5.359375 
Q 44.046875 -1.421875 33.015625 -1.421875 
Q 20.359375 -1.421875 13.671875 8.265625 
Q 6.984375 17.96875 6.984375 36.375 
Q 6.984375 53.65625 15.1875 63.9375 
Q 23.390625 74.21875 37.203125 74.21875 
Q 40.921875 74.21875 44.703125 73.484375 
Q 48.484375 72.75 52.59375 71.296875 
z
" id="DejaVuSans-54"/>
      </defs>
      <g style="fill:#262626;" transform="translate(38.847348 75.27417)scale(0.1 -0.1)">
       <use xlink:href="#DejaVuSans-54"/>
      </g>
     </g>
    </g>
    <g id="text_11">
     <!-- % of samples -->
     <defs>
      <path d="M 72.703125 32.078125 
Q 68.453125 32.078125 66.03125 28.46875 
Q 63.625 24.859375 63.625 18.40625 
Q 63.625 12.0625 66.03125 8.421875 
Q 68.453125 4.78125 72.703125 4.78125 
Q 76.859375 4.78125 79.265625 8.421875 
Q 81.6875 12.0625 81.6875 18.40625 
Q 81.6875 24.8125 79.265625 28.4375 
Q 76.859375 32.078125 72.703125 32.078125 
z
M 72.703125 38.28125 
Q 80.421875 38.28125 84.953125 32.90625 
Q 89.5 27.546875 89.5 18.40625 
Q 89.5 9.28125 84.9375 3.921875 
Q 80.375 -1.421875 72.703125 -1.421875 
Q 64.890625 -1.421875 60.34375 3.921875 
Q 55.8125 9.28125 55.8125 18.40625 
Q 55.8125 27.59375 60.375 32.9375 
Q 64.9375 38.28125 72.703125 38.28125 
z
M 22.3125 68.015625 
Q 18.109375 68.015625 15.6875 64.375 
Q 13.28125 60.75 13.28125 54.390625 
Q 13.28125 47.953125 15.671875 44.328125 
Q 18.0625 40.71875 22.3125 40.71875 
Q 26.5625 40.71875 28.96875 44.328125 
Q 31.390625 47.953125 31.390625 54.390625 
Q 31.390625 60.6875 28.953125 64.34375 
Q 26.515625 68.015625 22.3125 68.015625 
z
M 66.40625 74.21875 
L 74.21875 74.21875 
L 28.609375 -1.421875 
L 20.796875 -1.421875 
z
M 22.3125 74.21875 
Q 30.03125 74.21875 34.609375 68.875 
Q 39.203125 63.53125 39.203125 54.390625 
Q 39.203125 45.171875 34.640625 39.84375 
Q 30.078125 34.515625 22.3125 34.515625 
Q 14.546875 34.515625 10.03125 39.859375 
Q 5.515625 45.21875 5.515625 54.390625 
Q 5.515625 63.484375 10.046875 68.84375 
Q 14.59375 74.21875 22.3125 74.21875 
z
" id="DejaVuSans-37"/>
      <path id="DejaVuSans-32"/>
      <path d="M 52 44.1875 
Q 55.375 50.25 60.0625 53.125 
Q 64.75 56 71.09375 56 
Q 79.640625 56 84.28125 50.015625 
Q 88.921875 44.046875 88.921875 33.015625 
L 88.921875 0 
L 79.890625 0 
L 79.890625 32.71875 
Q 79.890625 40.578125 77.09375 44.375 
Q 74.3125 48.1875 68.609375 48.1875 
Q 61.625 48.1875 57.5625 43.546875 
Q 53.515625 38.921875 53.515625 30.90625 
L 53.515625 0 
L 44.484375 0 
L 44.484375 32.71875 
Q 44.484375 40.625 41.703125 44.40625 
Q 38.921875 48.1875 33.109375 48.1875 
Q 26.21875 48.1875 22.15625 43.53125 
Q 18.109375 38.875 18.109375 30.90625 
L 18.109375 0 
L 9.078125 0 
L 9.078125 54.6875 
L 18.109375 54.6875 
L 18.109375 46.1875 
Q 21.1875 51.21875 25.484375 53.609375 
Q 29.78125 56 35.6875 56 
Q 41.65625 56 45.828125 52.96875 
Q 50 49.953125 52 44.1875 
z
" id="DejaVuSans-109"/>
     </defs>
     <g style="fill:#262626;" transform="translate(32.76766 219.450781)rotate(-90)scale(0.1 -0.1)">
      <use xlink:href="#DejaVuSans-37"/>
      <use x="95.019531" xlink:href="#DejaVuSans-32"/>
      <use x="126.806641" xlink:href="#DejaVuSans-111"/>
      <use x="187.988281" xlink:href="#DejaVuSans-102"/>
      <use x="223.193359" xlink:href="#DejaVuSans-32"/>
      <use x="254.980469" xlink:href="#DejaVuSans-115"/>
      <use x="307.080078" xlink:href="#DejaVuSans-97"/>
      <use x="368.359375" xlink:href="#DejaVuSans-109"/>
      <use x="465.771484" xlink:href="#DejaVuSans-112"/>
      <use x="529.248047" xlink:href="#DejaVuSans-108"/>
      <use x="557.03125" xlink:href="#DejaVuSans-101"/>
      <use x="618.554688" xlink:href="#DejaVuSans-115"/>
     </g>
    </g>
   </g>
   <g id="patch_3">
    <path clip-path="url(#pefd11f92e2)" d="M 67.50523 305.844886 
L 82.346293 305.844886 
L 82.346293 271.427309 
L 67.50523 271.427309 
L 67.50523 305.844886 
z
" style="fill:#3274a1;stroke:#3d3d3d;stroke-linejoin:miter;stroke-width:1.5;"/>
   </g>
   <g id="patch_4">
    <path clip-path="url(#pefd11f92e2)" d="M 82.649172 305.844886 
L 97.490236 305.844886 
L 97.490236 271.580276 
L 82.649172 271.580276 
L 82.649172 305.844886 
z
" style="fill:#e1812c;stroke:#3d3d3d;stroke-linejoin:miter;stroke-width:1.5;"/>
   </g>
   <g id="patch_5">
    <path clip-path="url(#pefd11f92e2)" d="M 97.793115 305.844886 
L 112.634179 305.844886 
L 112.634179 271.427309 
L 97.793115 271.427309 
L 97.793115 305.844886 
z
" style="fill:#3a923a;stroke:#3d3d3d;stroke-linejoin:miter;stroke-width:1.5;"/>
   </g>
   <g id="patch_6">
    <path clip-path="url(#pefd11f92e2)" d="M 112.937057 234.154347 
L 127.778121 234.154347 
L 127.778121 168.786445 
L 112.937057 168.786445 
L 112.937057 234.154347 
z
" style="fill:#c03d3e;stroke:#3d3d3d;stroke-linejoin:miter;stroke-width:1.5;"/>
   </g>
   <g id="patch_7">
    <path clip-path="url(#pefd11f92e2)" d="M 128.081 305.844886 
L 142.922064 305.844886 
L 142.922064 270.33429 
L 128.081 270.33429 
L 128.081 305.844886 
z
" style="fill:#9372b2;stroke:#3d3d3d;stroke-linejoin:miter;stroke-width:1.5;"/>
   </g>
   <g id="patch_8">
    <path clip-path="url(#pefd11f92e2)" d="M 143.224943 305.844886 
L 158.066006 305.844886 
L 158.066006 269.676687 
L 143.224943 269.676687 
L 143.224943 305.844886 
z
" style="fill:#845b53;stroke:#3d3d3d;stroke-linejoin:miter;stroke-width:1.5;"/>
   </g>
   <g id="patch_9">
    <path clip-path="url(#pefd11f92e2)" d="M 158.368885 305.844886 
L 173.209949 305.844886 
L 173.209949 297.278734 
L 158.368885 297.278734 
L 158.368885 305.844886 
z
" style="fill:#d684bd;stroke:#3d3d3d;stroke-linejoin:miter;stroke-width:1.5;"/>
   </g>
   <g id="patch_10">
    <path clip-path="url(#pefd11f92e2)" d="M 173.512828 305.844886 
L 188.353892 305.844886 
L 188.353892 270.968408 
L 173.512828 270.968408 
L 173.512828 305.844886 
z
" style="fill:#7f7f7f;stroke:#3d3d3d;stroke-linejoin:miter;stroke-width:1.5;"/>
   </g>
   <g id="patch_11">
    <path clip-path="url(#pefd11f92e2)" d="M 218.944656 305.844886 
L 233.78572 305.844886 
L 233.78572 305.844886 
L 218.944656 305.844886 
L 218.944656 305.844886 
z
" style="fill:#3274a1;stroke:#3d3d3d;stroke-linejoin:miter;stroke-width:1.5;"/>
   </g>
   <g id="patch_12">
    <path clip-path="url(#pefd11f92e2)" d="M 234.088598 305.844886 
L 248.929662 305.844886 
L 248.929662 305.844886 
L 234.088598 305.844886 
L 234.088598 305.844886 
z
" style="fill:#e1812c;stroke:#3d3d3d;stroke-linejoin:miter;stroke-width:1.5;"/>
   </g>
   <g id="patch_13">
    <path clip-path="url(#pefd11f92e2)" d="M 249.232541 305.844886 
L 264.073605 305.844886 
L 264.073605 305.844886 
L 249.232541 305.844886 
L 249.232541 305.844886 
z
" style="fill:#3a923a;stroke:#3d3d3d;stroke-linejoin:miter;stroke-width:1.5;"/>
   </g>
   <g id="patch_14">
    <path clip-path="url(#pefd11f92e2)" d="M 264.376484 305.844886 
L 279.217547 305.844886 
L 279.217547 305.844886 
L 264.376484 305.844886 
L 264.376484 305.844886 
z
" style="fill:#c03d3e;stroke:#3d3d3d;stroke-linejoin:miter;stroke-width:1.5;"/>
   </g>
   <g id="patch_15">
    <path clip-path="url(#pefd11f92e2)" d="M 279.520426 305.844886 
L 294.36149 305.844886 
L 294.36149 305.844886 
L 279.520426 305.844886 
L 279.520426 305.844886 
z
" style="fill:#9372b2;stroke:#3d3d3d;stroke-linejoin:miter;stroke-width:1.5;"/>
   </g>
   <g id="patch_16">
    <path clip-path="url(#pefd11f92e2)" d="M 294.664369 305.844886 
L 309.505433 305.844886 
L 309.505433 305.844886 
L 294.664369 305.844886 
L 294.664369 305.844886 
z
" style="fill:#845b53;stroke:#3d3d3d;stroke-linejoin:miter;stroke-width:1.5;"/>
   </g>
   <g id="patch_17">
    <path clip-path="url(#pefd11f92e2)" d="M 309.808312 305.844886 
L 324.649375 305.844886 
L 324.649375 305.844886 
L 309.808312 305.844886 
L 309.808312 305.844886 
z
" style="fill:#d684bd;stroke:#3d3d3d;stroke-linejoin:miter;stroke-width:1.5;"/>
   </g>
   <g id="patch_18">
    <path clip-path="url(#pefd11f92e2)" d="M 324.952254 305.844886 
L 339.793318 305.844886 
L 339.793318 305.844886 
L 324.952254 305.844886 
L 324.952254 305.844886 
z
" style="fill:#7f7f7f;stroke:#3d3d3d;stroke-linejoin:miter;stroke-width:1.5;"/>
   </g>
   <g id="patch_19">
    <path clip-path="url(#pefd11f92e2)" d="M 127.929561 305.844886 
L 127.929561 305.844886 
L 127.929561 305.844886 
L 127.929561 305.844886 
z
" style="fill:#3274a1;stroke:#3d3d3d;stroke-linejoin:miter;stroke-width:0.75;"/>
   </g>
   <g id="patch_20">
    <path clip-path="url(#pefd11f92e2)" d="M 127.929561 305.844886 
L 127.929561 305.844886 
L 127.929561 305.844886 
L 127.929561 305.844886 
z
" style="fill:#e1812c;stroke:#3d3d3d;stroke-linejoin:miter;stroke-width:0.75;"/>
   </g>
   <g id="patch_21">
    <path clip-path="url(#pefd11f92e2)" d="M 127.929561 305.844886 
L 127.929561 305.844886 
L 127.929561 305.844886 
L 127.929561 305.844886 
z
" style="fill:#3a923a;stroke:#3d3d3d;stroke-linejoin:miter;stroke-width:0.75;"/>
   </g>
   <g id="patch_22">
    <path clip-path="url(#pefd11f92e2)" d="M 127.929561 305.844886 
L 127.929561 305.844886 
L 127.929561 305.844886 
L 127.929561 305.844886 
z
" style="fill:#c03d3e;stroke:#3d3d3d;stroke-linejoin:miter;stroke-width:0.75;"/>
   </g>
   <g id="patch_23">
    <path clip-path="url(#pefd11f92e2)" d="M 127.929561 305.844886 
L 127.929561 305.844886 
L 127.929561 305.844886 
L 127.929561 305.844886 
z
" style="fill:#9372b2;stroke:#3d3d3d;stroke-linejoin:miter;stroke-width:0.75;"/>
   </g>
   <g id="patch_24">
    <path clip-path="url(#pefd11f92e2)" d="M 127.929561 305.844886 
L 127.929561 305.844886 
L 127.929561 305.844886 
L 127.929561 305.844886 
z
" style="fill:#845b53;stroke:#3d3d3d;stroke-linejoin:miter;stroke-width:0.75;"/>
   </g>
   <g id="patch_25">
    <path clip-path="url(#pefd11f92e2)" d="M 127.929561 305.844886 
L 127.929561 305.844886 
L 127.929561 305.844886 
L 127.929561 305.844886 
z
" style="fill:#d684bd;stroke:#3d3d3d;stroke-linejoin:miter;stroke-width:0.75;"/>
   </g>
   <g id="patch_26">
    <path clip-path="url(#pefd11f92e2)" d="M 127.929561 305.844886 
L 127.929561 305.844886 
L 127.929561 305.844886 
L 127.929561 305.844886 
z
" style="fill:#7f7f7f;stroke:#3d3d3d;stroke-linejoin:miter;stroke-width:0.75;"/>
   </g>
   <g id="line2d_8">
    <path clip-path="url(#pefd11f92e2)" d="M 74.925761 305.844886 
L 74.925761 305.844886 
" style="fill:none;stroke:#3d3d3d;stroke-linecap:round;stroke-width:1.5;"/>
   </g>
   <g id="line2d_9">
    <path clip-path="url(#pefd11f92e2)" d="M 74.925761 271.427309 
L 74.925761 230.726317 
" style="fill:none;stroke:#3d3d3d;stroke-linecap:round;stroke-width:1.5;"/>
   </g>
   <g id="line2d_10">
    <path clip-path="url(#pefd11f92e2)" d="M 71.215495 305.844886 
L 78.636027 305.844886 
" style="fill:none;stroke:#3d3d3d;stroke-linecap:round;stroke-width:1.5;"/>
   </g>
   <g id="line2d_11">
    <path clip-path="url(#pefd11f92e2)" d="M 71.215495 230.726317 
L 78.636027 230.726317 
" style="fill:none;stroke:#3d3d3d;stroke-linecap:round;stroke-width:1.5;"/>
   </g>
   <g id="line2d_12"/>
   <g id="line2d_13">
    <path clip-path="url(#pefd11f92e2)" d="M 90.069704 305.844886 
L 90.069704 305.844886 
" style="fill:none;stroke:#3d3d3d;stroke-linecap:round;stroke-width:1.5;"/>
   </g>
   <g id="line2d_14">
    <path clip-path="url(#pefd11f92e2)" d="M 90.069704 271.580276 
L 90.069704 236.091929 
" style="fill:none;stroke:#3d3d3d;stroke-linecap:round;stroke-width:1.5;"/>
   </g>
   <g id="line2d_15">
    <path clip-path="url(#pefd11f92e2)" d="M 86.359438 305.844886 
L 93.77997 305.844886 
" style="fill:none;stroke:#3d3d3d;stroke-linecap:round;stroke-width:1.5;"/>
   </g>
   <g id="line2d_16">
    <path clip-path="url(#pefd11f92e2)" d="M 86.359438 236.091929 
L 93.77997 236.091929 
" style="fill:none;stroke:#3d3d3d;stroke-linecap:round;stroke-width:1.5;"/>
   </g>
   <g id="line2d_17"/>
   <g id="line2d_18">
    <path clip-path="url(#pefd11f92e2)" d="M 105.213647 305.844886 
L 105.213647 305.844886 
" style="fill:none;stroke:#3d3d3d;stroke-linecap:round;stroke-width:1.5;"/>
   </g>
   <g id="line2d_19">
    <path clip-path="url(#pefd11f92e2)" d="M 105.213647 271.427309 
L 105.213647 234.823694 
" style="fill:none;stroke:#3d3d3d;stroke-linecap:round;stroke-width:1.5;"/>
   </g>
   <g id="line2d_20">
    <path clip-path="url(#pefd11f92e2)" d="M 101.503381 305.844886 
L 108.923913 305.844886 
" style="fill:none;stroke:#3d3d3d;stroke-linecap:round;stroke-width:1.5;"/>
   </g>
   <g id="line2d_21">
    <path clip-path="url(#pefd11f92e2)" d="M 101.503381 234.823694 
L 108.923913 234.823694 
" style="fill:none;stroke:#3d3d3d;stroke-linecap:round;stroke-width:1.5;"/>
   </g>
   <g id="line2d_22"/>
   <g id="line2d_23">
    <path clip-path="url(#pefd11f92e2)" d="M 120.357589 234.154347 
L 120.357589 305.844886 
" style="fill:none;stroke:#3d3d3d;stroke-linecap:round;stroke-width:1.5;"/>
   </g>
   <g id="line2d_24">
    <path clip-path="url(#pefd11f92e2)" d="M 120.357589 168.786445 
L 120.357589 125.003887 
" style="fill:none;stroke:#3d3d3d;stroke-linecap:round;stroke-width:1.5;"/>
   </g>
   <g id="line2d_25">
    <path clip-path="url(#pefd11f92e2)" d="M 116.647323 305.844886 
L 124.067855 305.844886 
" style="fill:none;stroke:#3d3d3d;stroke-linecap:round;stroke-width:1.5;"/>
   </g>
   <g id="line2d_26">
    <path clip-path="url(#pefd11f92e2)" d="M 116.647323 125.003887 
L 124.067855 125.003887 
" style="fill:none;stroke:#3d3d3d;stroke-linecap:round;stroke-width:1.5;"/>
   </g>
   <g id="line2d_27">
    <defs>
     <path d="M -0 3.535534 
L 2.12132 0 
L -0 -3.535534 
L -2.12132 -0 
z
" id="mdb43b03049" style="stroke:#3d3d3d;stroke-linejoin:miter;"/>
    </defs>
    <g clip-path="url(#pefd11f92e2)">
     <use style="fill:#3d3d3d;stroke:#3d3d3d;stroke-linejoin:miter;" x="120.357589" xlink:href="#mdb43b03049" y="65.992614"/>
    </g>
   </g>
   <g id="line2d_28">
    <path clip-path="url(#pefd11f92e2)" d="M 135.501532 305.844886 
L 135.501532 305.844886 
" style="fill:none;stroke:#3d3d3d;stroke-linecap:round;stroke-width:1.5;"/>
   </g>
   <g id="line2d_29">
    <path clip-path="url(#pefd11f92e2)" d="M 135.501532 270.33429 
L 135.501532 230.726317 
" style="fill:none;stroke:#3d3d3d;stroke-linecap:round;stroke-width:1.5;"/>
   </g>
   <g id="line2d_30">
    <path clip-path="url(#pefd11f92e2)" d="M 131.791266 305.844886 
L 139.211798 305.844886 
" style="fill:none;stroke:#3d3d3d;stroke-linecap:round;stroke-width:1.5;"/>
   </g>
   <g id="line2d_31">
    <path clip-path="url(#pefd11f92e2)" d="M 131.791266 230.726317 
L 139.211798 230.726317 
" style="fill:none;stroke:#3d3d3d;stroke-linecap:round;stroke-width:1.5;"/>
   </g>
   <g id="line2d_32">
    <g clip-path="url(#pefd11f92e2)">
     <use style="fill:#3d3d3d;stroke:#3d3d3d;stroke-linejoin:miter;" x="135.501532" xlink:href="#mdb43b03049" y="203.051055"/>
    </g>
   </g>
   <g id="line2d_33">
    <path clip-path="url(#pefd11f92e2)" d="M 150.645475 305.844886 
L 150.645475 305.844886 
" style="fill:none;stroke:#3d3d3d;stroke-linecap:round;stroke-width:1.5;"/>
   </g>
   <g id="line2d_34">
    <path clip-path="url(#pefd11f92e2)" d="M 150.645475 269.676687 
L 150.645475 237.315666 
" style="fill:none;stroke:#3d3d3d;stroke-linecap:round;stroke-width:1.5;"/>
   </g>
   <g id="line2d_35">
    <path clip-path="url(#pefd11f92e2)" d="M 146.935209 305.844886 
L 154.355741 305.844886 
" style="fill:none;stroke:#3d3d3d;stroke-linecap:round;stroke-width:1.5;"/>
   </g>
   <g id="line2d_36">
    <path clip-path="url(#pefd11f92e2)" d="M 146.935209 237.315666 
L 154.355741 237.315666 
" style="fill:none;stroke:#3d3d3d;stroke-linecap:round;stroke-width:1.5;"/>
   </g>
   <g id="line2d_37"/>
   <g id="line2d_38">
    <path clip-path="url(#pefd11f92e2)" d="M 165.789417 305.844886 
L 165.789417 305.844886 
" style="fill:none;stroke:#3d3d3d;stroke-linecap:round;stroke-width:1.5;"/>
   </g>
   <g id="line2d_39">
    <path clip-path="url(#pefd11f92e2)" d="M 165.789417 297.278734 
L 165.789417 297.278734 
" style="fill:none;stroke:#3d3d3d;stroke-linecap:round;stroke-width:1.5;"/>
   </g>
   <g id="line2d_40">
    <path clip-path="url(#pefd11f92e2)" d="M 162.079151 305.844886 
L 169.499683 305.844886 
" style="fill:none;stroke:#3d3d3d;stroke-linecap:round;stroke-width:1.5;"/>
   </g>
   <g id="line2d_41">
    <path clip-path="url(#pefd11f92e2)" d="M 162.079151 297.278734 
L 169.499683 297.278734 
" style="fill:none;stroke:#3d3d3d;stroke-linecap:round;stroke-width:1.5;"/>
   </g>
   <g id="line2d_42">
    <g clip-path="url(#pefd11f92e2)">
     <use style="fill:#3d3d3d;stroke:#3d3d3d;stroke-linejoin:miter;" x="165.789417" xlink:href="#mdb43b03049" y="271.580276"/>
     <use style="fill:#3d3d3d;stroke:#3d3d3d;stroke-linejoin:miter;" x="165.789417" xlink:href="#mdb43b03049" y="270.968408"/>
     <use style="fill:#3d3d3d;stroke:#3d3d3d;stroke-linejoin:miter;" x="165.789417" xlink:href="#mdb43b03049" y="237.315666"/>
     <use style="fill:#3d3d3d;stroke:#3d3d3d;stroke-linejoin:miter;" x="165.789417" xlink:href="#mdb43b03049" y="269.676687"/>
     <use style="fill:#3d3d3d;stroke:#3d3d3d;stroke-linejoin:miter;" x="165.789417" xlink:href="#mdb43b03049" y="269.676687"/>
    </g>
   </g>
   <g id="line2d_43">
    <path clip-path="url(#pefd11f92e2)" d="M 180.93336 305.844886 
L 180.93336 305.844886 
" style="fill:none;stroke:#3d3d3d;stroke-linecap:round;stroke-width:1.5;"/>
   </g>
   <g id="line2d_44">
    <path clip-path="url(#pefd11f92e2)" d="M 180.93336 270.968408 
L 180.93336 233.508487 
" style="fill:none;stroke:#3d3d3d;stroke-linecap:round;stroke-width:1.5;"/>
   </g>
   <g id="line2d_45">
    <path clip-path="url(#pefd11f92e2)" d="M 177.223094 305.844886 
L 184.643626 305.844886 
" style="fill:none;stroke:#3d3d3d;stroke-linecap:round;stroke-width:1.5;"/>
   </g>
   <g id="line2d_46">
    <path clip-path="url(#pefd11f92e2)" d="M 177.223094 233.508487 
L 184.643626 233.508487 
" style="fill:none;stroke:#3d3d3d;stroke-linecap:round;stroke-width:1.5;"/>
   </g>
   <g id="line2d_47"/>
   <g id="line2d_48">
    <path clip-path="url(#pefd11f92e2)" d="M 226.365188 305.844886 
L 226.365188 305.844886 
" style="fill:none;stroke:#3d3d3d;stroke-linecap:round;stroke-width:1.5;"/>
   </g>
   <g id="line2d_49">
    <path clip-path="url(#pefd11f92e2)" d="M 226.365188 305.844886 
L 226.365188 305.844886 
" style="fill:none;stroke:#3d3d3d;stroke-linecap:round;stroke-width:1.5;"/>
   </g>
   <g id="line2d_50">
    <path clip-path="url(#pefd11f92e2)" d="M 222.654922 305.844886 
L 230.075454 305.844886 
" style="fill:none;stroke:#3d3d3d;stroke-linecap:round;stroke-width:1.5;"/>
   </g>
   <g id="line2d_51">
    <path clip-path="url(#pefd11f92e2)" d="M 222.654922 305.844886 
L 230.075454 305.844886 
" style="fill:none;stroke:#3d3d3d;stroke-linecap:round;stroke-width:1.5;"/>
   </g>
   <g id="line2d_52"/>
   <g id="line2d_53">
    <path clip-path="url(#pefd11f92e2)" d="M 241.50913 305.844886 
L 241.50913 305.844886 
" style="fill:none;stroke:#3d3d3d;stroke-linecap:round;stroke-width:1.5;"/>
   </g>
   <g id="line2d_54">
    <path clip-path="url(#pefd11f92e2)" d="M 241.50913 305.844886 
L 241.50913 305.844886 
" style="fill:none;stroke:#3d3d3d;stroke-linecap:round;stroke-width:1.5;"/>
   </g>
   <g id="line2d_55">
    <path clip-path="url(#pefd11f92e2)" d="M 237.798864 305.844886 
L 245.219396 305.844886 
" style="fill:none;stroke:#3d3d3d;stroke-linecap:round;stroke-width:1.5;"/>
   </g>
   <g id="line2d_56">
    <path clip-path="url(#pefd11f92e2)" d="M 237.798864 305.844886 
L 245.219396 305.844886 
" style="fill:none;stroke:#3d3d3d;stroke-linecap:round;stroke-width:1.5;"/>
   </g>
   <g id="line2d_57"/>
   <g id="line2d_58">
    <path clip-path="url(#pefd11f92e2)" d="M 256.653073 305.844886 
L 256.653073 305.844886 
" style="fill:none;stroke:#3d3d3d;stroke-linecap:round;stroke-width:1.5;"/>
   </g>
   <g id="line2d_59">
    <path clip-path="url(#pefd11f92e2)" d="M 256.653073 305.844886 
L 256.653073 305.844886 
" style="fill:none;stroke:#3d3d3d;stroke-linecap:round;stroke-width:1.5;"/>
   </g>
   <g id="line2d_60">
    <path clip-path="url(#pefd11f92e2)" d="M 252.942807 305.844886 
L 260.363339 305.844886 
" style="fill:none;stroke:#3d3d3d;stroke-linecap:round;stroke-width:1.5;"/>
   </g>
   <g id="line2d_61">
    <path clip-path="url(#pefd11f92e2)" d="M 252.942807 305.844886 
L 260.363339 305.844886 
" style="fill:none;stroke:#3d3d3d;stroke-linecap:round;stroke-width:1.5;"/>
   </g>
   <g id="line2d_62"/>
   <g id="line2d_63">
    <path clip-path="url(#pefd11f92e2)" d="M 271.797016 305.844886 
L 271.797016 305.844886 
" style="fill:none;stroke:#3d3d3d;stroke-linecap:round;stroke-width:1.5;"/>
   </g>
   <g id="line2d_64">
    <path clip-path="url(#pefd11f92e2)" d="M 271.797016 305.844886 
L 271.797016 305.844886 
" style="fill:none;stroke:#3d3d3d;stroke-linecap:round;stroke-width:1.5;"/>
   </g>
   <g id="line2d_65">
    <path clip-path="url(#pefd11f92e2)" d="M 268.08675 305.844886 
L 275.507282 305.844886 
" style="fill:none;stroke:#3d3d3d;stroke-linecap:round;stroke-width:1.5;"/>
   </g>
   <g id="line2d_66">
    <path clip-path="url(#pefd11f92e2)" d="M 268.08675 305.844886 
L 275.507282 305.844886 
" style="fill:none;stroke:#3d3d3d;stroke-linecap:round;stroke-width:1.5;"/>
   </g>
   <g id="line2d_67"/>
   <g id="line2d_68">
    <path clip-path="url(#pefd11f92e2)" d="M 286.940958 305.844886 
L 286.940958 305.844886 
" style="fill:none;stroke:#3d3d3d;stroke-linecap:round;stroke-width:1.5;"/>
   </g>
   <g id="line2d_69">
    <path clip-path="url(#pefd11f92e2)" d="M 286.940958 305.844886 
L 286.940958 305.844886 
" style="fill:none;stroke:#3d3d3d;stroke-linecap:round;stroke-width:1.5;"/>
   </g>
   <g id="line2d_70">
    <path clip-path="url(#pefd11f92e2)" d="M 283.230692 305.844886 
L 290.651224 305.844886 
" style="fill:none;stroke:#3d3d3d;stroke-linecap:round;stroke-width:1.5;"/>
   </g>
   <g id="line2d_71">
    <path clip-path="url(#pefd11f92e2)" d="M 283.230692 305.844886 
L 290.651224 305.844886 
" style="fill:none;stroke:#3d3d3d;stroke-linecap:round;stroke-width:1.5;"/>
   </g>
   <g id="line2d_72"/>
   <g id="line2d_73">
    <path clip-path="url(#pefd11f92e2)" d="M 302.084901 305.844886 
L 302.084901 305.844886 
" style="fill:none;stroke:#3d3d3d;stroke-linecap:round;stroke-width:1.5;"/>
   </g>
   <g id="line2d_74">
    <path clip-path="url(#pefd11f92e2)" d="M 302.084901 305.844886 
L 302.084901 305.844886 
" style="fill:none;stroke:#3d3d3d;stroke-linecap:round;stroke-width:1.5;"/>
   </g>
   <g id="line2d_75">
    <path clip-path="url(#pefd11f92e2)" d="M 298.374635 305.844886 
L 305.795167 305.844886 
" style="fill:none;stroke:#3d3d3d;stroke-linecap:round;stroke-width:1.5;"/>
   </g>
   <g id="line2d_76">
    <path clip-path="url(#pefd11f92e2)" d="M 298.374635 305.844886 
L 305.795167 305.844886 
" style="fill:none;stroke:#3d3d3d;stroke-linecap:round;stroke-width:1.5;"/>
   </g>
   <g id="line2d_77"/>
   <g id="line2d_78">
    <path clip-path="url(#pefd11f92e2)" d="M 317.228843 305.844886 
L 317.228843 305.844886 
" style="fill:none;stroke:#3d3d3d;stroke-linecap:round;stroke-width:1.5;"/>
   </g>
   <g id="line2d_79">
    <path clip-path="url(#pefd11f92e2)" d="M 317.228843 305.844886 
L 317.228843 305.844886 
" style="fill:none;stroke:#3d3d3d;stroke-linecap:round;stroke-width:1.5;"/>
   </g>
   <g id="line2d_80">
    <path clip-path="url(#pefd11f92e2)" d="M 313.518577 305.844886 
L 320.939109 305.844886 
" style="fill:none;stroke:#3d3d3d;stroke-linecap:round;stroke-width:1.5;"/>
   </g>
   <g id="line2d_81">
    <path clip-path="url(#pefd11f92e2)" d="M 313.518577 305.844886 
L 320.939109 305.844886 
" style="fill:none;stroke:#3d3d3d;stroke-linecap:round;stroke-width:1.5;"/>
   </g>
   <g id="line2d_82"/>
   <g id="line2d_83">
    <path clip-path="url(#pefd11f92e2)" d="M 332.372786 305.844886 
L 332.372786 305.844886 
" style="fill:none;stroke:#3d3d3d;stroke-linecap:round;stroke-width:1.5;"/>
   </g>
   <g id="line2d_84">
    <path clip-path="url(#pefd11f92e2)" d="M 332.372786 305.844886 
L 332.372786 305.844886 
" style="fill:none;stroke:#3d3d3d;stroke-linecap:round;stroke-width:1.5;"/>
   </g>
   <g id="line2d_85">
    <path clip-path="url(#pefd11f92e2)" d="M 328.66252 305.844886 
L 336.083052 305.844886 
" style="fill:none;stroke:#3d3d3d;stroke-linecap:round;stroke-width:1.5;"/>
   </g>
   <g id="line2d_86">
    <path clip-path="url(#pefd11f92e2)" d="M 328.66252 305.844886 
L 336.083052 305.844886 
" style="fill:none;stroke:#3d3d3d;stroke-linecap:round;stroke-width:1.5;"/>
   </g>
   <g id="line2d_87"/>
   <g id="line2d_88">
    <path clip-path="url(#pefd11f92e2)" d="M 67.50523 305.844886 
L 82.346293 305.844886 
" style="fill:none;stroke:#b22222;stroke-linecap:round;stroke-width:2;"/>
   </g>
   <g id="line2d_89">
    <path clip-path="url(#pefd11f92e2)" d="M 82.649172 305.844886 
L 97.490236 305.844886 
" style="fill:none;stroke:#b22222;stroke-linecap:round;stroke-width:2;"/>
   </g>
   <g id="line2d_90">
    <path clip-path="url(#pefd11f92e2)" d="M 97.793115 305.844886 
L 112.634179 305.844886 
" style="fill:none;stroke:#b22222;stroke-linecap:round;stroke-width:2;"/>
   </g>
   <g id="line2d_91">
    <path clip-path="url(#pefd11f92e2)" d="M 112.937057 199.313098 
L 127.778121 199.313098 
" style="fill:none;stroke:#b22222;stroke-linecap:round;stroke-width:2;"/>
   </g>
   <g id="line2d_92">
    <path clip-path="url(#pefd11f92e2)" d="M 128.081 288.712581 
L 142.922064 288.712581 
" style="fill:none;stroke:#b22222;stroke-linecap:round;stroke-width:2;"/>
   </g>
   <g id="line2d_93">
    <path clip-path="url(#pefd11f92e2)" d="M 143.224943 288.406647 
L 158.066006 288.406647 
" style="fill:none;stroke:#b22222;stroke-linecap:round;stroke-width:2;"/>
   </g>
   <g id="line2d_94">
    <path clip-path="url(#pefd11f92e2)" d="M 158.368885 305.844886 
L 173.209949 305.844886 
" style="fill:none;stroke:#b22222;stroke-linecap:round;stroke-width:2;"/>
   </g>
   <g id="line2d_95">
    <path clip-path="url(#pefd11f92e2)" d="M 173.512828 305.844886 
L 188.353892 305.844886 
" style="fill:none;stroke:#b22222;stroke-linecap:round;stroke-width:2;"/>
   </g>
   <g id="line2d_96">
    <path clip-path="url(#pefd11f92e2)" d="M 218.944656 305.844886 
L 233.78572 305.844886 
" style="fill:none;stroke:#b22222;stroke-linecap:round;stroke-width:2;"/>
   </g>
   <g id="line2d_97">
    <path clip-path="url(#pefd11f92e2)" d="M 234.088598 305.844886 
L 248.929662 305.844886 
" style="fill:none;stroke:#b22222;stroke-linecap:round;stroke-width:2;"/>
   </g>
   <g id="line2d_98">
    <path clip-path="url(#pefd11f92e2)" d="M 249.232541 305.844886 
L 264.073605 305.844886 
" style="fill:none;stroke:#b22222;stroke-linecap:round;stroke-width:2;"/>
   </g>
   <g id="line2d_99">
    <path clip-path="url(#pefd11f92e2)" d="M 264.376484 305.844886 
L 279.217547 305.844886 
" style="fill:none;stroke:#b22222;stroke-linecap:round;stroke-width:2;"/>
   </g>
   <g id="line2d_100">
    <path clip-path="url(#pefd11f92e2)" d="M 279.520426 305.844886 
L 294.36149 305.844886 
" style="fill:none;stroke:#b22222;stroke-linecap:round;stroke-width:2;"/>
   </g>
   <g id="line2d_101">
    <path clip-path="url(#pefd11f92e2)" d="M 294.664369 305.844886 
L 309.505433 305.844886 
" style="fill:none;stroke:#b22222;stroke-linecap:round;stroke-width:2;"/>
   </g>
   <g id="line2d_102">
    <path clip-path="url(#pefd11f92e2)" d="M 309.808312 305.844886 
L 324.649375 305.844886 
" style="fill:none;stroke:#b22222;stroke-linecap:round;stroke-width:2;"/>
   </g>
   <g id="line2d_103">
    <path clip-path="url(#pefd11f92e2)" d="M 324.952254 305.844886 
L 339.793318 305.844886 
" style="fill:none;stroke:#b22222;stroke-linecap:round;stroke-width:2;"/>
   </g>
   <g id="patch_27">
    <path d="M 52.209848 317.8375 
L 52.209848 54 
" style="fill:none;stroke:#cccccc;stroke-linecap:square;stroke-linejoin:miter;stroke-width:0.8;"/>
   </g>
   <g id="patch_28">
    <path d="M 52.209848 317.8375 
L 355.0887 317.8375 
" style="fill:none;stroke:#cccccc;stroke-linecap:square;stroke-linejoin:miter;stroke-width:0.8;"/>
   </g>
   <g id="text_12">
    <!-- 0.0 -->
    <defs>
     <path d="M 46 36.53125 
Q 46 50.203125 43.4375 55.78125 
Q 40.875 61.375 34.8125 61.375 
Q 28.765625 61.375 26.171875 55.78125 
Q 23.578125 50.203125 23.578125 36.53125 
Q 23.578125 22.703125 26.171875 17.03125 
Q 28.765625 11.375 34.8125 11.375 
Q 40.828125 11.375 43.40625 17.03125 
Q 46 22.703125 46 36.53125 
z
M 64.796875 36.375 
Q 64.796875 18.265625 56.984375 8.421875 
Q 49.171875 -1.421875 34.8125 -1.421875 
Q 20.40625 -1.421875 12.59375 8.421875 
Q 4.78125 18.265625 4.78125 36.375 
Q 4.78125 54.546875 12.59375 64.375 
Q 20.40625 74.21875 34.8125 74.21875 
Q 49.171875 74.21875 56.984375 64.375 
Q 64.796875 54.546875 64.796875 36.375 
z
" id="DejaVuSans-Bold-48"/>
     <path d="M 10.203125 18.890625 
L 27.78125 18.890625 
L 27.78125 0 
L 10.203125 0 
z
" id="DejaVuSans-Bold-46"/>
    </defs>
    <g style="fill:#808080;" transform="translate(68.778982 152.603006)scale(0.0694 -0.0694)">
     <use xlink:href="#DejaVuSans-Bold-48"/>
     <use x="69.580078" xlink:href="#DejaVuSans-Bold-46"/>
     <use x="107.568359" xlink:href="#DejaVuSans-Bold-48"/>
    </g>
   </g>
   <g id="text_13">
    <!-- 0.0 -->
    <g style="fill:#808080;" transform="translate(83.922924 157.968618)scale(0.0694 -0.0694)">
     <use xlink:href="#DejaVuSans-Bold-48"/>
     <use x="69.580078" xlink:href="#DejaVuSans-Bold-46"/>
     <use x="107.568359" xlink:href="#DejaVuSans-Bold-48"/>
    </g>
   </g>
   <g id="text_14">
    <!-- 0.0 -->
    <g style="fill:#808080;" transform="translate(99.066867 156.700382)scale(0.0694 -0.0694)">
     <use xlink:href="#DejaVuSans-Bold-48"/>
     <use x="69.580078" xlink:href="#DejaVuSans-Bold-46"/>
     <use x="107.568359" xlink:href="#DejaVuSans-Bold-48"/>
    </g>
   </g>
   <g id="text_15">
    <!-- 2.7 -->
    <defs>
     <path d="M 28.8125 13.8125 
L 60.890625 13.8125 
L 60.890625 0 
L 7.90625 0 
L 7.90625 13.8125 
L 34.515625 37.3125 
Q 38.09375 40.53125 39.796875 43.609375 
Q 41.5 46.6875 41.5 50 
Q 41.5 55.125 38.0625 58.25 
Q 34.625 61.375 28.90625 61.375 
Q 24.515625 61.375 19.28125 59.5 
Q 14.0625 57.625 8.109375 53.90625 
L 8.109375 69.921875 
Q 14.453125 72.015625 20.65625 73.109375 
Q 26.859375 74.21875 32.8125 74.21875 
Q 45.90625 74.21875 53.15625 68.453125 
Q 60.40625 62.703125 60.40625 52.390625 
Q 60.40625 46.4375 57.328125 41.28125 
Q 54.25 36.140625 44.390625 27.484375 
z
" id="DejaVuSans-Bold-50"/>
     <path d="M 6.6875 72.90625 
L 61.625 72.90625 
L 61.625 62.3125 
L 33.203125 0 
L 14.890625 0 
L 41.796875 59.078125 
L 6.6875 59.078125 
z
" id="DejaVuSans-Bold-55"/>
    </defs>
    <g style="fill:#808080;" transform="translate(114.21081 -12.130698)scale(0.0694 -0.0694)">
     <use xlink:href="#DejaVuSans-Bold-50"/>
     <use x="69.580078" xlink:href="#DejaVuSans-Bold-46"/>
     <use x="107.568359" xlink:href="#DejaVuSans-Bold-55"/>
    </g>
   </g>
   <g id="text_16">
    <!-- 0.4 -->
    <defs>
     <path d="M 36.8125 57.421875 
L 16.21875 26.90625 
L 36.8125 26.90625 
z
M 33.6875 72.90625 
L 54.59375 72.90625 
L 54.59375 26.90625 
L 64.984375 26.90625 
L 64.984375 13.28125 
L 54.59375 13.28125 
L 54.59375 0 
L 36.8125 0 
L 36.8125 13.28125 
L 4.5 13.28125 
L 4.5 29.390625 
z
" id="DejaVuSans-Bold-52"/>
    </defs>
    <g style="fill:#808080;" transform="translate(129.354752 124.927744)scale(0.0694 -0.0694)">
     <use xlink:href="#DejaVuSans-Bold-48"/>
     <use x="69.580078" xlink:href="#DejaVuSans-Bold-46"/>
     <use x="107.568359" xlink:href="#DejaVuSans-Bold-52"/>
    </g>
   </g>
   <g id="text_17">
    <!-- 0.4 -->
    <g style="fill:#808080;" transform="translate(144.498695 159.192354)scale(0.0694 -0.0694)">
     <use xlink:href="#DejaVuSans-Bold-48"/>
     <use x="69.580078" xlink:href="#DejaVuSans-Bold-46"/>
     <use x="107.568359" xlink:href="#DejaVuSans-Bold-52"/>
    </g>
   </g>
   <g id="text_18">
    <!-- 0.0 -->
    <g style="fill:#808080;" transform="translate(159.642638 159.192354)scale(0.0694 -0.0694)">
     <use xlink:href="#DejaVuSans-Bold-48"/>
     <use x="69.580078" xlink:href="#DejaVuSans-Bold-46"/>
     <use x="107.568359" xlink:href="#DejaVuSans-Bold-48"/>
    </g>
   </g>
   <g id="text_19">
    <!-- 0.0 -->
    <g style="fill:#808080;" transform="translate(174.78658 155.385175)scale(0.0694 -0.0694)">
     <use xlink:href="#DejaVuSans-Bold-48"/>
     <use x="69.580078" xlink:href="#DejaVuSans-Bold-46"/>
     <use x="107.568359" xlink:href="#DejaVuSans-Bold-48"/>
    </g>
   </g>
   <g id="text_20">
    <!-- 0.0 -->
    <g style="fill:#808080;" transform="translate(220.218408 227.721575)scale(0.0694 -0.0694)">
     <use xlink:href="#DejaVuSans-Bold-48"/>
     <use x="69.580078" xlink:href="#DejaVuSans-Bold-46"/>
     <use x="107.568359" xlink:href="#DejaVuSans-Bold-48"/>
    </g>
   </g>
   <g id="text_21">
    <!-- 0.0 -->
    <g style="fill:#808080;" transform="translate(235.362351 227.721575)scale(0.0694 -0.0694)">
     <use xlink:href="#DejaVuSans-Bold-48"/>
     <use x="69.580078" xlink:href="#DejaVuSans-Bold-46"/>
     <use x="107.568359" xlink:href="#DejaVuSans-Bold-48"/>
    </g>
   </g>
   <g id="text_22">
    <!-- 0.0 -->
    <g style="fill:#808080;" transform="translate(250.506293 227.721575)scale(0.0694 -0.0694)">
     <use xlink:href="#DejaVuSans-Bold-48"/>
     <use x="69.580078" xlink:href="#DejaVuSans-Bold-46"/>
     <use x="107.568359" xlink:href="#DejaVuSans-Bold-48"/>
    </g>
   </g>
   <g id="text_23">
    <!-- 0.0 -->
    <g style="fill:#808080;" transform="translate(265.650236 227.721575)scale(0.0694 -0.0694)">
     <use xlink:href="#DejaVuSans-Bold-48"/>
     <use x="69.580078" xlink:href="#DejaVuSans-Bold-46"/>
     <use x="107.568359" xlink:href="#DejaVuSans-Bold-48"/>
    </g>
   </g>
   <g id="text_24">
    <!-- 0.0 -->
    <g style="fill:#808080;" transform="translate(280.794179 227.721575)scale(0.0694 -0.0694)">
     <use xlink:href="#DejaVuSans-Bold-48"/>
     <use x="69.580078" xlink:href="#DejaVuSans-Bold-46"/>
     <use x="107.568359" xlink:href="#DejaVuSans-Bold-48"/>
    </g>
   </g>
   <g id="text_25">
    <!-- 0.0 -->
    <g style="fill:#808080;" transform="translate(295.938121 227.721575)scale(0.0694 -0.0694)">
     <use xlink:href="#DejaVuSans-Bold-48"/>
     <use x="69.580078" xlink:href="#DejaVuSans-Bold-46"/>
     <use x="107.568359" xlink:href="#DejaVuSans-Bold-48"/>
    </g>
   </g>
   <g id="text_26">
    <!-- 0.0 -->
    <g style="fill:#808080;" transform="translate(311.082064 227.721575)scale(0.0694 -0.0694)">
     <use xlink:href="#DejaVuSans-Bold-48"/>
     <use x="69.580078" xlink:href="#DejaVuSans-Bold-46"/>
     <use x="107.568359" xlink:href="#DejaVuSans-Bold-48"/>
    </g>
   </g>
   <g id="text_27">
    <!-- 0.0 -->
    <g style="fill:#808080;" transform="translate(326.226006 227.721575)scale(0.0694 -0.0694)">
     <use xlink:href="#DejaVuSans-Bold-48"/>
     <use x="69.580078" xlink:href="#DejaVuSans-Bold-46"/>
     <use x="107.568359" xlink:href="#DejaVuSans-Bold-48"/>
    </g>
   </g>
   <g id="text_28">
    <!-- locus = spl -->
    <defs>
     <path d="M 10.59375 45.40625 
L 73.1875 45.40625 
L 73.1875 37.203125 
L 10.59375 37.203125 
z
M 10.59375 25.484375 
L 73.1875 25.484375 
L 73.1875 17.1875 
L 10.59375 17.1875 
z
" id="DejaVuSans-61"/>
    </defs>
    <g style="fill:#262626;" transform="translate(176.142243 48)scale(0.1 -0.1)">
     <use xlink:href="#DejaVuSans-108"/>
     <use x="27.783203" xlink:href="#DejaVuSans-111"/>
     <use x="88.964844" xlink:href="#DejaVuSans-99"/>
     <use x="143.945312" xlink:href="#DejaVuSans-117"/>
     <use x="207.324219" xlink:href="#DejaVuSans-115"/>
     <use x="259.423828" xlink:href="#DejaVuSans-32"/>
     <use x="291.210938" xlink:href="#DejaVuSans-61"/>
     <use x="375" xlink:href="#DejaVuSans-32"/>
     <use x="406.787109" xlink:href="#DejaVuSans-115"/>
     <use x="458.886719" xlink:href="#DejaVuSans-112"/>
     <use x="522.363281" xlink:href="#DejaVuSans-108"/>
    </g>
   </g>
  </g>
  <g id="text_29">
   <!-- Classification accuracy -->
   <defs>
    <path d="M 64.40625 67.28125 
L 64.40625 56.890625 
Q 59.421875 61.53125 53.78125 63.8125 
Q 48.140625 66.109375 41.796875 66.109375 
Q 29.296875 66.109375 22.65625 58.46875 
Q 16.015625 50.828125 16.015625 36.375 
Q 16.015625 21.96875 22.65625 14.328125 
Q 29.296875 6.6875 41.796875 6.6875 
Q 48.140625 6.6875 53.78125 8.984375 
Q 59.421875 11.28125 64.40625 15.921875 
L 64.40625 5.609375 
Q 59.234375 2.09375 53.4375 0.328125 
Q 47.65625 -1.421875 41.21875 -1.421875 
Q 24.65625 -1.421875 15.125 8.703125 
Q 5.609375 18.84375 5.609375 36.375 
Q 5.609375 53.953125 15.125 64.078125 
Q 24.65625 74.21875 41.21875 74.21875 
Q 47.75 74.21875 53.53125 72.484375 
Q 59.328125 70.75 64.40625 67.28125 
z
" id="DejaVuSans-67"/>
    <path d="M 32.171875 -5.078125 
Q 28.375 -14.84375 24.75 -17.8125 
Q 21.140625 -20.796875 15.09375 -20.796875 
L 7.90625 -20.796875 
L 7.90625 -13.28125 
L 13.1875 -13.28125 
Q 16.890625 -13.28125 18.9375 -11.515625 
Q 21 -9.765625 23.484375 -3.21875 
L 25.09375 0.875 
L 2.984375 54.6875 
L 12.5 54.6875 
L 29.59375 11.921875 
L 46.6875 54.6875 
L 56.203125 54.6875 
z
" id="DejaVuSans-121"/>
   </defs>
   <g style="fill:#262626;" transform="translate(176.8875 16.318125)scale(0.12 -0.12)">
    <use xlink:href="#DejaVuSans-67"/>
    <use x="69.824219" xlink:href="#DejaVuSans-108"/>
    <use x="97.607422" xlink:href="#DejaVuSans-97"/>
    <use x="158.886719" xlink:href="#DejaVuSans-115"/>
    <use x="210.986328" xlink:href="#DejaVuSans-115"/>
    <use x="263.085938" xlink:href="#DejaVuSans-105"/>
    <use x="290.869141" xlink:href="#DejaVuSans-102"/>
    <use x="326.074219" xlink:href="#DejaVuSans-105"/>
    <use x="353.857422" xlink:href="#DejaVuSans-99"/>
    <use x="408.837891" xlink:href="#DejaVuSans-97"/>
    <use x="470.117188" xlink:href="#DejaVuSans-116"/>
    <use x="509.326172" xlink:href="#DejaVuSans-105"/>
    <use x="537.109375" xlink:href="#DejaVuSans-111"/>
    <use x="598.291016" xlink:href="#DejaVuSans-110"/>
    <use x="661.669922" xlink:href="#DejaVuSans-32"/>
    <use x="693.457031" xlink:href="#DejaVuSans-97"/>
    <use x="754.736328" xlink:href="#DejaVuSans-99"/>
    <use x="809.716797" xlink:href="#DejaVuSans-99"/>
    <use x="864.697266" xlink:href="#DejaVuSans-117"/>
    <use x="928.076172" xlink:href="#DejaVuSans-114"/>
    <use x="969.189453" xlink:href="#DejaVuSans-97"/>
    <use x="1030.46875" xlink:href="#DejaVuSans-99"/>
    <use x="1085.449219" xlink:href="#DejaVuSans-121"/>
   </g>
  </g>
  <g id="legend_1">
   <g id="text_30">
    <!-- method -->
    <g style="fill:#262626;" transform="translate(401.155 124.046875)scale(0.1 -0.1)">
     <use xlink:href="#DejaVuSans-109"/>
     <use x="97.412109" xlink:href="#DejaVuSans-101"/>
     <use x="158.935547" xlink:href="#DejaVuSans-116"/>
     <use x="198.144531" xlink:href="#DejaVuSans-104"/>
     <use x="261.523438" xlink:href="#DejaVuSans-111"/>
     <use x="322.705078" xlink:href="#DejaVuSans-100"/>
    </g>
   </g>
   <g id="patch_29">
    <path d="M 358.79875 138.725 
L 378.79875 138.725 
L 378.79875 131.725 
L 358.79875 131.725 
z
" style="fill:#3274a1;stroke:#3d3d3d;stroke-linejoin:miter;stroke-width:0.75;"/>
   </g>
   <g id="text_31">
    <!-- DecisionTree -->
    <defs>
     <path d="M 19.671875 64.796875 
L 19.671875 8.109375 
L 31.59375 8.109375 
Q 46.6875 8.109375 53.6875 14.9375 
Q 60.6875 21.78125 60.6875 36.53125 
Q 60.6875 51.171875 53.6875 57.984375 
Q 46.6875 64.796875 31.59375 64.796875 
z
M 9.8125 72.90625 
L 30.078125 72.90625 
Q 51.265625 72.90625 61.171875 64.09375 
Q 71.09375 55.28125 71.09375 36.53125 
Q 71.09375 17.671875 61.125 8.828125 
Q 51.171875 0 30.078125 0 
L 9.8125 0 
z
" id="DejaVuSans-68"/>
     <path d="M -0.296875 72.90625 
L 61.375 72.90625 
L 61.375 64.59375 
L 35.5 64.59375 
L 35.5 0 
L 25.59375 0 
L 25.59375 64.59375 
L -0.296875 64.59375 
z
" id="DejaVuSans-84"/>
    </defs>
    <g style="fill:#262626;" transform="translate(386.79875 138.725)scale(0.1 -0.1)">
     <use xlink:href="#DejaVuSans-68"/>
     <use x="77.001953" xlink:href="#DejaVuSans-101"/>
     <use x="138.525391" xlink:href="#DejaVuSans-99"/>
     <use x="193.505859" xlink:href="#DejaVuSans-105"/>
     <use x="221.289062" xlink:href="#DejaVuSans-115"/>
     <use x="273.388672" xlink:href="#DejaVuSans-105"/>
     <use x="301.171875" xlink:href="#DejaVuSans-111"/>
     <use x="362.353516" xlink:href="#DejaVuSans-110"/>
     <use x="425.732422" xlink:href="#DejaVuSans-84"/>
     <use x="486.597656" xlink:href="#DejaVuSans-114"/>
     <use x="527.679688" xlink:href="#DejaVuSans-101"/>
     <use x="589.203125" xlink:href="#DejaVuSans-101"/>
    </g>
   </g>
   <g id="patch_30">
    <path d="M 358.79875 153.403125 
L 378.79875 153.403125 
L 378.79875 146.403125 
L 358.79875 146.403125 
z
" style="fill:#e1812c;stroke:#3d3d3d;stroke-linejoin:miter;stroke-width:0.75;"/>
   </g>
   <g id="text_32">
    <!-- KNeighbors -->
    <defs>
     <path d="M 9.8125 72.90625 
L 19.671875 72.90625 
L 19.671875 42.09375 
L 52.390625 72.90625 
L 65.09375 72.90625 
L 28.90625 38.921875 
L 67.671875 0 
L 54.6875 0 
L 19.671875 35.109375 
L 19.671875 0 
L 9.8125 0 
z
" id="DejaVuSans-75"/>
     <path d="M 9.8125 72.90625 
L 23.09375 72.90625 
L 55.421875 11.921875 
L 55.421875 72.90625 
L 64.984375 72.90625 
L 64.984375 0 
L 51.703125 0 
L 19.390625 60.984375 
L 19.390625 0 
L 9.8125 0 
z
" id="DejaVuSans-78"/>
     <path d="M 48.6875 27.296875 
Q 48.6875 37.203125 44.609375 42.84375 
Q 40.53125 48.484375 33.40625 48.484375 
Q 26.265625 48.484375 22.1875 42.84375 
Q 18.109375 37.203125 18.109375 27.296875 
Q 18.109375 17.390625 22.1875 11.75 
Q 26.265625 6.109375 33.40625 6.109375 
Q 40.53125 6.109375 44.609375 11.75 
Q 48.6875 17.390625 48.6875 27.296875 
z
M 18.109375 46.390625 
Q 20.953125 51.265625 25.265625 53.625 
Q 29.59375 56 35.59375 56 
Q 45.5625 56 51.78125 48.09375 
Q 58.015625 40.1875 58.015625 27.296875 
Q 58.015625 14.40625 51.78125 6.484375 
Q 45.5625 -1.421875 35.59375 -1.421875 
Q 29.59375 -1.421875 25.265625 0.953125 
Q 20.953125 3.328125 18.109375 8.203125 
L 18.109375 0 
L 9.078125 0 
L 9.078125 75.984375 
L 18.109375 75.984375 
z
" id="DejaVuSans-98"/>
    </defs>
    <g style="fill:#262626;" transform="translate(386.79875 153.403125)scale(0.1 -0.1)">
     <use xlink:href="#DejaVuSans-75"/>
     <use x="65.576172" xlink:href="#DejaVuSans-78"/>
     <use x="140.380859" xlink:href="#DejaVuSans-101"/>
     <use x="201.904297" xlink:href="#DejaVuSans-105"/>
     <use x="229.6875" xlink:href="#DejaVuSans-103"/>
     <use x="293.164062" xlink:href="#DejaVuSans-104"/>
     <use x="356.542969" xlink:href="#DejaVuSans-98"/>
     <use x="420.019531" xlink:href="#DejaVuSans-111"/>
     <use x="481.201172" xlink:href="#DejaVuSans-114"/>
     <use x="522.314453" xlink:href="#DejaVuSans-115"/>
    </g>
   </g>
   <g id="patch_31">
    <path d="M 358.79875 168.08125 
L 378.79875 168.08125 
L 378.79875 161.08125 
L 358.79875 161.08125 
z
" style="fill:#3a923a;stroke:#3d3d3d;stroke-linejoin:miter;stroke-width:0.75;"/>
   </g>
   <g id="text_33">
    <!-- LogisticRegression -->
    <defs>
     <path d="M 9.8125 72.90625 
L 19.671875 72.90625 
L 19.671875 8.296875 
L 55.171875 8.296875 
L 55.171875 0 
L 9.8125 0 
z
" id="DejaVuSans-76"/>
     <path d="M 44.390625 34.1875 
Q 47.5625 33.109375 50.5625 29.59375 
Q 53.5625 26.078125 56.59375 19.921875 
L 66.609375 0 
L 56 0 
L 46.6875 18.703125 
Q 43.0625 26.03125 39.671875 28.421875 
Q 36.28125 30.8125 30.421875 30.8125 
L 19.671875 30.8125 
L 19.671875 0 
L 9.8125 0 
L 9.8125 72.90625 
L 32.078125 72.90625 
Q 44.578125 72.90625 50.734375 67.671875 
Q 56.890625 62.453125 56.890625 51.90625 
Q 56.890625 45.015625 53.6875 40.46875 
Q 50.484375 35.9375 44.390625 34.1875 
z
M 19.671875 64.796875 
L 19.671875 38.921875 
L 32.078125 38.921875 
Q 39.203125 38.921875 42.84375 42.21875 
Q 46.484375 45.515625 46.484375 51.90625 
Q 46.484375 58.296875 42.84375 61.546875 
Q 39.203125 64.796875 32.078125 64.796875 
z
" id="DejaVuSans-82"/>
    </defs>
    <g style="fill:#262626;" transform="translate(386.79875 168.08125)scale(0.1 -0.1)">
     <use xlink:href="#DejaVuSans-76"/>
     <use x="55.697266" xlink:href="#DejaVuSans-111"/>
     <use x="116.878906" xlink:href="#DejaVuSans-103"/>
     <use x="180.355469" xlink:href="#DejaVuSans-105"/>
     <use x="208.138672" xlink:href="#DejaVuSans-115"/>
     <use x="260.238281" xlink:href="#DejaVuSans-116"/>
     <use x="299.447266" xlink:href="#DejaVuSans-105"/>
     <use x="327.230469" xlink:href="#DejaVuSans-99"/>
     <use x="382.210938" xlink:href="#DejaVuSans-82"/>
     <use x="451.630859" xlink:href="#DejaVuSans-101"/>
     <use x="513.154297" xlink:href="#DejaVuSans-103"/>
     <use x="576.630859" xlink:href="#DejaVuSans-114"/>
     <use x="617.712891" xlink:href="#DejaVuSans-101"/>
     <use x="679.236328" xlink:href="#DejaVuSans-115"/>
     <use x="731.335938" xlink:href="#DejaVuSans-115"/>
     <use x="783.435547" xlink:href="#DejaVuSans-105"/>
     <use x="811.21875" xlink:href="#DejaVuSans-111"/>
     <use x="872.400391" xlink:href="#DejaVuSans-110"/>
    </g>
   </g>
   <g id="patch_32">
    <path d="M 358.79875 182.759375 
L 378.79875 182.759375 
L 378.79875 175.759375 
L 358.79875 175.759375 
z
" style="fill:#c03d3e;stroke:#3d3d3d;stroke-linejoin:miter;stroke-width:0.75;"/>
   </g>
   <g id="text_34">
    <!-- MSINGS -->
    <defs>
     <path d="M 9.8125 72.90625 
L 24.515625 72.90625 
L 43.109375 23.296875 
L 61.8125 72.90625 
L 76.515625 72.90625 
L 76.515625 0 
L 66.890625 0 
L 66.890625 64.015625 
L 48.09375 14.015625 
L 38.1875 14.015625 
L 19.390625 64.015625 
L 19.390625 0 
L 9.8125 0 
z
" id="DejaVuSans-77"/>
     <path d="M 53.515625 70.515625 
L 53.515625 60.890625 
Q 47.90625 63.578125 42.921875 64.890625 
Q 37.9375 66.21875 33.296875 66.21875 
Q 25.25 66.21875 20.875 63.09375 
Q 16.5 59.96875 16.5 54.203125 
Q 16.5 49.359375 19.40625 46.890625 
Q 22.3125 44.4375 30.421875 42.921875 
L 36.375 41.703125 
Q 47.40625 39.59375 52.65625 34.296875 
Q 57.90625 29 57.90625 20.125 
Q 57.90625 9.515625 50.796875 4.046875 
Q 43.703125 -1.421875 29.984375 -1.421875 
Q 24.8125 -1.421875 18.96875 -0.25 
Q 13.140625 0.921875 6.890625 3.21875 
L 6.890625 13.375 
Q 12.890625 10.015625 18.65625 8.296875 
Q 24.421875 6.59375 29.984375 6.59375 
Q 38.421875 6.59375 43.015625 9.90625 
Q 47.609375 13.234375 47.609375 19.390625 
Q 47.609375 24.75 44.3125 27.78125 
Q 41.015625 30.8125 33.5 32.328125 
L 27.484375 33.5 
Q 16.453125 35.6875 11.515625 40.375 
Q 6.59375 45.0625 6.59375 53.421875 
Q 6.59375 63.09375 13.40625 68.65625 
Q 20.21875 74.21875 32.171875 74.21875 
Q 37.3125 74.21875 42.625 73.28125 
Q 47.953125 72.359375 53.515625 70.515625 
z
" id="DejaVuSans-83"/>
     <path d="M 9.8125 72.90625 
L 19.671875 72.90625 
L 19.671875 0 
L 9.8125 0 
z
" id="DejaVuSans-73"/>
     <path d="M 59.515625 10.40625 
L 59.515625 29.984375 
L 43.40625 29.984375 
L 43.40625 38.09375 
L 69.28125 38.09375 
L 69.28125 6.78125 
Q 63.578125 2.734375 56.6875 0.65625 
Q 49.8125 -1.421875 42 -1.421875 
Q 24.90625 -1.421875 15.25 8.5625 
Q 5.609375 18.5625 5.609375 36.375 
Q 5.609375 54.25 15.25 64.234375 
Q 24.90625 74.21875 42 74.21875 
Q 49.125 74.21875 55.546875 72.453125 
Q 61.96875 70.703125 67.390625 67.28125 
L 67.390625 56.78125 
Q 61.921875 61.421875 55.765625 63.765625 
Q 49.609375 66.109375 42.828125 66.109375 
Q 29.4375 66.109375 22.71875 58.640625 
Q 16.015625 51.171875 16.015625 36.375 
Q 16.015625 21.625 22.71875 14.15625 
Q 29.4375 6.6875 42.828125 6.6875 
Q 48.046875 6.6875 52.140625 7.59375 
Q 56.25 8.5 59.515625 10.40625 
z
" id="DejaVuSans-71"/>
    </defs>
    <g style="fill:#262626;" transform="translate(386.79875 182.759375)scale(0.1 -0.1)">
     <use xlink:href="#DejaVuSans-77"/>
     <use x="86.279297" xlink:href="#DejaVuSans-83"/>
     <use x="149.755859" xlink:href="#DejaVuSans-73"/>
     <use x="179.248047" xlink:href="#DejaVuSans-78"/>
     <use x="254.052734" xlink:href="#DejaVuSans-71"/>
     <use x="331.542969" xlink:href="#DejaVuSans-83"/>
    </g>
   </g>
   <g id="patch_33">
    <path d="M 358.79875 197.4375 
L 378.79875 197.4375 
L 378.79875 190.4375 
L 358.79875 190.4375 
z
" style="fill:#9372b2;stroke:#3d3d3d;stroke-linejoin:miter;stroke-width:0.75;"/>
   </g>
   <g id="text_35">
    <!-- RandomForest -->
    <defs>
     <path d="M 9.8125 72.90625 
L 51.703125 72.90625 
L 51.703125 64.59375 
L 19.671875 64.59375 
L 19.671875 43.109375 
L 48.578125 43.109375 
L 48.578125 34.8125 
L 19.671875 34.8125 
L 19.671875 0 
L 9.8125 0 
z
" id="DejaVuSans-70"/>
    </defs>
    <g style="fill:#262626;" transform="translate(386.79875 197.4375)scale(0.1 -0.1)">
     <use xlink:href="#DejaVuSans-82"/>
     <use x="69.451172" xlink:href="#DejaVuSans-97"/>
     <use x="130.730469" xlink:href="#DejaVuSans-110"/>
     <use x="194.109375" xlink:href="#DejaVuSans-100"/>
     <use x="257.585938" xlink:href="#DejaVuSans-111"/>
     <use x="318.767578" xlink:href="#DejaVuSans-109"/>
     <use x="416.179688" xlink:href="#DejaVuSans-70"/>
     <use x="473.652344" xlink:href="#DejaVuSans-111"/>
     <use x="534.833984" xlink:href="#DejaVuSans-114"/>
     <use x="575.916016" xlink:href="#DejaVuSans-101"/>
     <use x="637.439453" xlink:href="#DejaVuSans-115"/>
     <use x="689.539062" xlink:href="#DejaVuSans-116"/>
    </g>
   </g>
   <g id="patch_34">
    <path d="M 358.79875 212.115625 
L 378.79875 212.115625 
L 378.79875 205.115625 
L 358.79875 205.115625 
z
" style="fill:#845b53;stroke:#3d3d3d;stroke-linejoin:miter;stroke-width:0.75;"/>
   </g>
   <g id="text_36">
    <!-- RandomForest:50 -->
    <defs>
     <path d="M 11.71875 12.40625 
L 22.015625 12.40625 
L 22.015625 0 
L 11.71875 0 
z
M 11.71875 51.703125 
L 22.015625 51.703125 
L 22.015625 39.3125 
L 11.71875 39.3125 
z
" id="DejaVuSans-58"/>
    </defs>
    <g style="fill:#262626;" transform="translate(386.79875 212.115625)scale(0.1 -0.1)">
     <use xlink:href="#DejaVuSans-82"/>
     <use x="69.451172" xlink:href="#DejaVuSans-97"/>
     <use x="130.730469" xlink:href="#DejaVuSans-110"/>
     <use x="194.109375" xlink:href="#DejaVuSans-100"/>
     <use x="257.585938" xlink:href="#DejaVuSans-111"/>
     <use x="318.767578" xlink:href="#DejaVuSans-109"/>
     <use x="416.179688" xlink:href="#DejaVuSans-70"/>
     <use x="473.652344" xlink:href="#DejaVuSans-111"/>
     <use x="534.833984" xlink:href="#DejaVuSans-114"/>
     <use x="575.916016" xlink:href="#DejaVuSans-101"/>
     <use x="637.439453" xlink:href="#DejaVuSans-115"/>
     <use x="689.539062" xlink:href="#DejaVuSans-116"/>
     <use x="728.748047" xlink:href="#DejaVuSans-58"/>
     <use x="762.439453" xlink:href="#DejaVuSans-53"/>
     <use x="826.0625" xlink:href="#DejaVuSans-48"/>
    </g>
   </g>
   <g id="patch_35">
    <path d="M 358.79875 226.79375 
L 378.79875 226.79375 
L 378.79875 219.79375 
L 358.79875 219.79375 
z
" style="fill:#d684bd;stroke:#3d3d3d;stroke-linejoin:miter;stroke-width:0.75;"/>
   </g>
   <g id="text_37">
    <!-- RandomForest:500 -->
    <g style="fill:#262626;" transform="translate(386.79875 226.79375)scale(0.1 -0.1)">
     <use xlink:href="#DejaVuSans-82"/>
     <use x="69.451172" xlink:href="#DejaVuSans-97"/>
     <use x="130.730469" xlink:href="#DejaVuSans-110"/>
     <use x="194.109375" xlink:href="#DejaVuSans-100"/>
     <use x="257.585938" xlink:href="#DejaVuSans-111"/>
     <use x="318.767578" xlink:href="#DejaVuSans-109"/>
     <use x="416.179688" xlink:href="#DejaVuSans-70"/>
     <use x="473.652344" xlink:href="#DejaVuSans-111"/>
     <use x="534.833984" xlink:href="#DejaVuSans-114"/>
     <use x="575.916016" xlink:href="#DejaVuSans-101"/>
     <use x="637.439453" xlink:href="#DejaVuSans-115"/>
     <use x="689.539062" xlink:href="#DejaVuSans-116"/>
     <use x="728.748047" xlink:href="#DejaVuSans-58"/>
     <use x="762.439453" xlink:href="#DejaVuSans-53"/>
     <use x="826.0625" xlink:href="#DejaVuSans-48"/>
     <use x="889.685547" xlink:href="#DejaVuSans-48"/>
    </g>
   </g>
   <g id="patch_36">
    <path d="M 358.79875 241.471875 
L 378.79875 241.471875 
L 378.79875 234.471875 
L 358.79875 234.471875 
z
" style="fill:#7f7f7f;stroke:#3d3d3d;stroke-linejoin:miter;stroke-width:0.75;"/>
   </g>
   <g id="text_38">
    <!-- SVM -->
    <defs>
     <path d="M 28.609375 0 
L 0.78125 72.90625 
L 11.078125 72.90625 
L 34.1875 11.53125 
L 57.328125 72.90625 
L 67.578125 72.90625 
L 39.796875 0 
z
" id="DejaVuSans-86"/>
    </defs>
    <g style="fill:#262626;" transform="translate(386.79875 241.471875)scale(0.1 -0.1)">
     <use xlink:href="#DejaVuSans-83"/>
     <use x="63.476562" xlink:href="#DejaVuSans-86"/>
     <use x="131.884766" xlink:href="#DejaVuSans-77"/>
    </g>
   </g>
  </g>
 </g>
 <defs>
  <clipPath id="pefd11f92e2">
   <rect height="263.8375" width="302.878852" x="52.209848" y="54"/>
  </clipPath>
 </defs>
</svg>
