<?xml version="1.0" encoding="UTF-8" standalone="no"?>
<!-- Created with Inkscape (http://www.inkscape.org/) -->

<svg
   xmlns:dc="http://purl.org/dc/elements/1.1/"
   xmlns:cc="http://creativecommons.org/ns#"
   xmlns:rdf="http://www.w3.org/1999/02/22-rdf-syntax-ns#"
   xmlns:svg="http://www.w3.org/2000/svg"
   xmlns="http://www.w3.org/2000/svg"
   xmlns:sodipodi="http://sodipodi.sourceforge.net/DTD/sodipodi-0.dtd"
   xmlns:inkscape="http://www.inkscape.org/namespaces/inkscape"
   width="109.68"
   height="24.615999"
   viewBox="0 0 109.68 24.616"
   id="svg3423"
   version="1.1"
   inkscape:version="0.91 r13725"
   sodipodi:docname="add_files-hover.svg">
  <defs
     id="defs3425" />
  <sodipodi:namedview
     id="base"
     pagecolor="#ffffff"
     bordercolor="#666666"
     borderopacity="1.0"
     inkscape:pageopacity="0.0"
     inkscape:pageshadow="2"
     inkscape:zoom="4.1497989"
     inkscape:cx="-29.38193"
     inkscape:cy="58.46255"
     inkscape:document-units="px"
     inkscape:current-layer="layer1"
     showgrid="false"
     units="px"
     inkscape:window-width="1680"
     inkscape:window-height="961"
     inkscape:window-x="0"
     inkscape:window-y="27"
     inkscape:window-maximized="1" />
  <metadata
     id="metadata3428">
    <rdf:RDF>
      <cc:Work
         rdf:about="">
        <dc:format>image/svg+xml</dc:format>
        <dc:type
           rdf:resource="http://purl.org/dc/dcmitype/StillImage" />
        <dc:title />
      </cc:Work>
    </rdf:RDF>
  </metadata>
  <g
     inkscape:label="Calque 1"
     inkscape:groupmode="layer"
     id="layer1"
     transform="translate(0,-1027.7461)">
    <rect
       style="fill:#e0e0e0;fill-opacity:1;fill-rule:evenodd;stroke:#adadad;stroke-width:1px;stroke-linecap:butt;stroke-linejoin:miter;stroke-opacity:1"
       id="rect3465"
       width="108.67997"
       height="23.61554"
       x="0.5"
       y="1028.2466"
       rx="3"
       ry="3" />
    <g
       transform="translate(1.8079691,-0.79597884)"
       id="g3394">
      <path
         style="fill:#333333;fill-opacity:1"
         inkscape:connector-curvature="0"
         d="M 22,12 C 22,17.523 17.523,22 12,22 6.4772,22 2,17.523 2,12 2,6.4772 6.4772,2 12,2 17.523,2 22,6.4772 22,12 Z"
         transform="translate(0,1029.4)"
         id="path3396" />
      <path
         style="fill:#333333;fill-opacity:1"
         inkscape:connector-curvature="0"
         d="M 22,12 C 22,17.523 17.523,22 12,22 6.4772,22 2,17.523 2,12 2,6.4772 6.4772,2 12,2 17.523,2 22,6.4772 22,12 Z"
         transform="translate(0,1028.4)"
         id="path3398" />
      <path
         style="fill:#333333;fill-opacity:1"
         inkscape:connector-curvature="0"
         d="m 6.0001,1042.4 4.9999,0 0,5 2,0 0,-5 5,0 0,-2 -5,0 0,-5 -2,0 0,5 -4.9999,0 0,2 z"
         id="path3400" />
      <path
         style="fill:#ecf0f1"
         inkscape:connector-curvature="0"
         d="m 6,1041.4 5,0 0,5 2,0 0,-5 5,0 0,-2 -5,0 0,-5 -2,0 0,5 -5,0 0,2 z"
         id="path3402" />
      <path
         style="fill:none;fill-opacity:0.31603777"
         d="M 11.300582,21.544383 C 7.3603199,20.43925 4.2392109,16.864966 3.8944525,13.062909 3.4889796,8.5912825 6.1666891,4.2354582 10.330837,2.5928556 12.062046,1.9099579 15.190208,1.8590503 17.01754,2.4840364 c 3.967759,1.357057 6.607857,5.1548144 6.639703,9.5511546 0.01709,2.359182 -0.499092,3.959111 -1.884885,5.8423 -2.288497,3.109893 -6.811164,4.693592 -10.471776,3.666892 z m 3.596188,-3.183585 c -0.02359,-0.231939 -0.03041,-1.316328 -0.01515,-2.409755 l 0.02775,-1.988048 2.379634,0 2.379633,0 0.15061,-0.753049 c 0.08283,-0.414176 0.15061,-1.11903 0.15061,-1.566341 l 0,-0.813292 -2.530243,0 -2.530244,0 0,-2.5302431 0,-2.5302431 -1.084389,0 -1.08439,0 0,2.5302431 0,2.5302431 -2.530243,0 -2.5302435,0 0,0.813292 c 0,0.447311 0.067774,1.152165 0.1506097,1.566341 l 0.1506097,0.753049 2.3796331,0 2.379634,0 0,2.409755 0,2.409756 1.099537,0 c 0.902869,0 1.091864,-0.07543 1.05664,-0.421708 z"
         id="path4149"
         inkscape:connector-curvature="0"
         transform="translate(-1.8079691,1028.5421)" />
      <path
         style="fill:none;fill-opacity:0.31603777"
         d="M 11.300582,21.544383 C 7.3603199,20.43925 4.2392109,16.864966 3.8944525,13.062909 3.4889796,8.5912825 6.1666891,4.2354582 10.330837,2.5928556 12.062046,1.9099579 15.190208,1.8590503 17.01754,2.4840364 c 3.967759,1.357057 6.607857,5.1548144 6.639703,9.5511546 0.01709,2.359182 -0.499092,3.959111 -1.884885,5.8423 -2.288497,3.109893 -6.811164,4.693592 -10.471776,3.666892 z m 3.596188,-3.183585 c -0.02359,-0.231939 -0.03041,-1.316328 -0.01515,-2.409755 l 0.02775,-1.988048 2.379634,0 2.379633,0 0.15061,-0.753049 c 0.08283,-0.414176 0.15061,-1.11903 0.15061,-1.566341 l 0,-0.813292 -2.530243,0 -2.530244,0 0,-2.5302431 0,-2.5302431 -1.084389,0 -1.08439,0 0,2.5302431 0,2.5302431 -2.530243,0 -2.5302435,0 0,0.813292 c 0,0.447311 0.067774,1.152165 0.1506097,1.566341 l 0.1506097,0.753049 2.3796331,0 2.379634,0 0,2.409755 0,2.409756 1.099537,0 c 0.902869,0 1.091864,-0.07543 1.05664,-0.421708 z"
         id="path4151"
         inkscape:connector-curvature="0"
         transform="translate(-1.8079691,1028.5421)" />
      <path
         style="fill:none;fill-opacity:0.31603777"
         d="M 11.300582,21.544383 C 7.3603199,20.43925 4.2392109,16.864966 3.8944525,13.062909 3.4889796,8.5912825 6.1666891,4.2354582 10.330837,2.5928556 12.062046,1.9099579 15.190208,1.8590503 17.01754,2.4840364 c 3.967759,1.357057 6.607857,5.1548144 6.639703,9.5511546 0.01709,2.359182 -0.499092,3.959111 -1.884885,5.8423 -2.288497,3.109893 -6.811164,4.693592 -10.471776,3.666892 z m 3.596188,-3.183585 c -0.02359,-0.231939 -0.03041,-1.316328 -0.01515,-2.409755 l 0.02775,-1.988048 2.379634,0 2.379633,0 0.15061,-0.753049 c 0.08283,-0.414176 0.15061,-1.11903 0.15061,-1.566341 l 0,-0.813292 -2.530243,0 -2.530244,0 0,-2.5302431 0,-2.5302431 -1.084389,0 -1.08439,0 0,2.5302431 0,2.5302431 -2.530243,0 -2.5302435,0 0,0.813292 c 0,0.447311 0.067774,1.152165 0.1506097,1.566341 l 0.1506097,0.753049 2.3796331,0 2.379634,0 0,2.409755 0,2.409756 1.099537,0 c 0.902869,0 1.091864,-0.07543 1.05664,-0.421708 z"
         id="path4153"
         inkscape:connector-curvature="0"
         transform="translate(-1.8079691,1028.5421)" />
      <path
         style="fill:none;fill-opacity:0.31603777"
         d="M 11.300582,21.544383 C 7.3603199,20.43925 4.2392109,16.864966 3.8944525,13.062909 3.4889796,8.5912825 6.1666891,4.2354582 10.330837,2.5928556 12.062046,1.9099579 15.190208,1.8590503 17.01754,2.4840364 c 3.967759,1.357057 6.607857,5.1548144 6.639703,9.5511546 0.01709,2.359182 -0.499092,3.959111 -1.884885,5.8423 -2.288497,3.109893 -6.811164,4.693592 -10.471776,3.666892 z m 3.596188,-3.183585 c -0.02359,-0.231939 -0.03041,-1.316328 -0.01515,-2.409755 l 0.02775,-1.988048 2.379634,0 2.379633,0 0.15061,-0.753049 c 0.08283,-0.414176 0.15061,-1.11903 0.15061,-1.566341 l 0,-0.813292 -2.530243,0 -2.530244,0 0,-2.5302431 0,-2.5302431 -1.084389,0 -1.08439,0 0,2.5302431 0,2.5302431 -2.530243,0 -2.5302435,0 0,0.813292 c 0,0.447311 0.067774,1.152165 0.1506097,1.566341 l 0.1506097,0.753049 2.3796331,0 2.379634,0 0,2.409755 0,2.409756 1.099537,0 c 0.902869,0 1.091864,-0.07543 1.05664,-0.421708 z"
         id="path4155"
         inkscape:connector-curvature="0"
         transform="translate(-1.8079691,1028.5421)" />
      <path
         style="fill:none;fill-opacity:0.31603777"
         d="M 11.300582,21.544383 C 7.3603199,20.43925 4.2392109,16.864966 3.8944525,13.062909 3.4889796,8.5912825 6.1666891,4.2354582 10.330837,2.5928556 12.062046,1.9099579 15.190208,1.8590503 17.01754,2.4840364 c 3.967759,1.357057 6.607857,5.1548144 6.639703,9.5511546 0.01709,2.359182 -0.499092,3.959111 -1.884885,5.8423 -2.288497,3.109893 -6.811164,4.693592 -10.471776,3.666892 z m 3.596188,-3.183585 c -0.02359,-0.231939 -0.03041,-1.316328 -0.01515,-2.409755 l 0.02775,-1.988048 2.379634,0 2.379633,0 0.15061,-0.753049 c 0.08283,-0.414176 0.15061,-1.11903 0.15061,-1.566341 l 0,-0.813292 -2.530243,0 -2.530244,0 0,-2.5302431 0,-2.5302431 -1.084389,0 -1.08439,0 0,2.5302431 0,2.5302431 -2.530243,0 -2.5302435,0 0,0.813292 c 0,0.447311 0.067774,1.152165 0.1506097,1.566341 l 0.1506097,0.753049 2.3796331,0 2.379634,0 0,2.409755 0,2.409756 1.099537,0 c 0.902869,0 1.091864,-0.07543 1.05664,-0.421708 z"
         id="path4157"
         inkscape:connector-curvature="0"
         transform="translate(-1.8079691,1028.5421)" />
      <path
         style="fill:none;fill-opacity:0.31603777"
         d="M 11.300582,21.544383 C 7.3603199,20.43925 4.2392109,16.864966 3.8944525,13.062909 3.4889796,8.5912825 6.1666891,4.2354582 10.330837,2.5928556 12.062046,1.9099579 15.190208,1.8590503 17.01754,2.4840364 c 3.967759,1.357057 6.607857,5.1548144 6.639703,9.5511546 0.01709,2.359182 -0.499092,3.959111 -1.884885,5.8423 -2.288497,3.109893 -6.811164,4.693592 -10.471776,3.666892 z m 3.596188,-3.183585 c -0.02359,-0.231939 -0.03041,-1.316328 -0.01515,-2.409755 l 0.02775,-1.988048 2.379634,0 2.379633,0 0.15061,-0.753049 c 0.08283,-0.414176 0.15061,-1.11903 0.15061,-1.566341 l 0,-0.813292 -2.530243,0 -2.530244,0 0,-2.5302431 0,-2.5302431 -1.084389,0 -1.08439,0 0,2.5302431 0,2.5302431 -2.530243,0 -2.5302435,0 0,0.813292 c 0,0.447311 0.067774,1.152165 0.1506097,1.566341 l 0.1506097,0.753049 2.3796331,0 2.379634,0 0,2.409755 0,2.409756 1.099537,0 c 0.902869,0 1.091864,-0.07543 1.05664,-0.421708 z"
         id="path4159"
         inkscape:connector-curvature="0"
         transform="translate(-1.8079691,1028.5421)" />
      <path
         style="fill:none;fill-opacity:0.31603777"
         d="M 11.300582,21.544383 C 7.3603199,20.43925 4.2392109,16.864966 3.8944525,13.062909 3.4889796,8.5912825 6.1666891,4.2354582 10.330837,2.5928556 12.062046,1.9099579 15.190208,1.8590503 17.01754,2.4840364 c 3.967759,1.357057 6.607857,5.1548144 6.639703,9.5511546 0.01709,2.359182 -0.499092,3.959111 -1.884885,5.8423 -2.288497,3.109893 -6.811164,4.693592 -10.471776,3.666892 z m 3.596188,-3.183585 c -0.02359,-0.231939 -0.03041,-1.316328 -0.01515,-2.409755 l 0.02775,-1.988048 2.379634,0 2.379633,0 0.15061,-0.753049 c 0.08283,-0.414176 0.15061,-1.11903 0.15061,-1.566341 l 0,-0.813292 -2.530243,0 -2.530244,0 0,-2.5302431 0,-2.5302431 -1.084389,0 -1.08439,0 0,2.5302431 0,2.5302431 -2.530243,0 -2.5302435,0 0,0.813292 c 0,0.447311 0.067774,1.152165 0.1506097,1.566341 l 0.1506097,0.753049 2.3796331,0 2.379634,0 0,2.409755 0,2.409756 1.099537,0 c 0.902869,0 1.091864,-0.07543 1.05664,-0.421708 z"
         id="path4161"
         inkscape:connector-curvature="0"
         transform="translate(-1.8079691,1028.5421)" />
    </g>
    <text
       xml:space="preserve"
       style="font-style:normal;font-weight:normal;font-size:40px;line-height:125%;font-family:sans-serif;letter-spacing:0px;word-spacing:0px;fill:#333333;fill-opacity:1;stroke:none;stroke-width:1px;stroke-linecap:butt;stroke-linejoin:miter;stroke-opacity:1;"
       x="30.453163"
       y="1045.8376"
       id="text4267"
       sodipodi:linespacing="125%"><tspan
         sodipodi:role="line"
         id="tspan4269"
         x="30.453163"
         y="1045.8376"
         style="font-size:17.5px;fill:#333333;fill-opacity:1;">Add files</tspan></text>
  </g>
</svg>
